<?xml version="1.0" encoding="UTF-8"?>
<svg width="49px" height="28px" viewBox="0 0 49 28" version="1.1" xmlns="http://www.w3.org/2000/svg" xmlns:xlink="http://www.w3.org/1999/xlink">
    <!-- Generator: Sketch 63.1 (92452) - https://sketch.com -->
    <title>co2</title>
    <desc>Created with Sketch.</desc>
    <defs>
        <rect id="path-1" x="0" y="0" width="344" height="1"></rect>
        <rect id="path-3" x="0" y="0" width="360" height="64" rx="1"></rect>
        <linearGradient x1="50%" y1="0%" x2="50%" y2="100%" id="linearGradient-5">
            <stop stop-color="#78C1B7" offset="0%"></stop>
            <stop stop-color="#194941" offset="100%"></stop>
        </linearGradient>
        <linearGradient x1="50%" y1="42.0924831%" x2="50%" y2="100%" id="linearGradient-6">
            <stop stop-color="#9DDED8" offset="0%"></stop>
            <stop stop-color="#000000" offset="100%"></stop>
        </linearGradient>
        <linearGradient x1="50%" y1="0%" x2="50%" y2="100%" id="linearGradient-7">
            <stop stop-color="#9DDED8" offset="42.0924831%"></stop>
            <stop stop-color="#000000" offset="100%"></stop>
        </linearGradient>
        <linearGradient x1="50%" y1="0%" x2="50%" y2="100%" id="linearGradient-8">
            <stop stop-color="#9DDED8" offset="42.0924831%"></stop>
            <stop stop-color="#000000" offset="100%"></stop>
        </linearGradient>
    </defs>
    <g id="Action-Plan" stroke="none" stroke-width="1" fill="none" fill-rule="evenodd">
        <g id="Desktop-HD" transform="translate(-375.000000, -354.000000)">
            <g id="List-/-Two-Line-/-Overline" transform="translate(64.000000, 336.000000)">
                <g id="Divider-/-Dark" transform="translate(16.000000, 63.000000)">
                    <mask id="mask-2" fill="white">
                        <use xlink:href="#path-1"></use>
                    </mask>
                    <g id="Surface"></g>
                    <g id="✱-/-Color-/-Icons-/-Selected-/-On-Surface-/-Active" opacity="0.12" mask="url(#mask-2)" fill="#000000" fill-opacity="0.87" fill-rule="evenodd">
                        <rect id="Rectangle-3" x="0" y="0" width="344" height="1"></rect>
                    </g>
                </g>
                <g id="✱-/-Text-/-Subtitle-1-/-Selected-/-On-Surface-/-High-Emphasis-/-Left" transform="translate(16.000000, 30.000000)" fill="#A9AFAD" font-family="Roboto-Regular, Roboto" font-size="16" font-weight="normal" letter-spacing="0.150000006" line-spacing="24">
                    <text id="Subtitle-1">
                        <tspan x="0" y="17">Instructions Title</tspan>
                    </text>
                </g>
                <g id="✱-/-Text-/-Overline-/-Selected-/-On-Surface-/-High-Emphasis-/-Left" transform="translate(16.000000, 11.000000)" fill="#80CBC4" font-family="Roboto-Medium, Roboto" font-size="12" font-weight="400" letter-spacing="2" line-spacing="16">
                    <text id="Overline">
                        <tspan x="0" y="13">CARBON</tspan>
                    </text>
                </g>
                <g id="List-/-State-/-Resting">
                    <mask id="mask-4" fill="white">
                        <use xlink:href="#path-3"></use>
                    </mask>
                    <g id="Surface"></g>
                </g>
            </g>
            <g id="co2" transform="translate(375.000000, 354.000000)" fill-rule="nonzero">
                <path d="M39.2266649,10.3182905 C38.3782773,10.3182905 37.533882,10.4172177 36.7138405,10.6129137 C36.7541638,10.270086 36.7741258,9.92581931 36.7737266,9.58155265 C36.7753236,5.00607935 33.1849469,1.06841671 28.2032144,0.182388738 C23.221482,-0.70399904 18.2397495,1.70838583 16.3114143,5.94103142 C13.8772404,4.69059142 10.8294325,4.97370313 8.73022194,6.6461126 C6.63061223,8.31816228 5.94471569,11.0086225 7.02346563,13.338628 C2.77913176,13.883627 -0.277459331,17.2903204 0.0199753825,21.1441646 C0.317809414,24.9980089 3.86866113,27.9899273 8.15611306,28 C8.60765495,28 8.97375916,27.6701227 8.97375916,27.2632621 C8.97375916,26.8560417 8.60765495,26.5265242 8.15611306,26.5265242 C4.54337892,26.5265242 1.61494424,23.8875061 1.61494424,20.6326211 C1.61494424,17.3773763 4.54337892,14.7387179 8.15611306,14.7387179 L8.28027711,14.7387179 C8.59967012,14.7674967 8.90868281,14.6275596 9.07356952,14.379702 C9.23645996,14.129686 9.22168796,13.817076 9.0360408,13.5803702 C8.45833867,12.8414739 8.15092295,11.9586835 8.15611306,11.0550284 C8.15531452,9.34052995 9.25602276,7.78035798 10.9795473,7.05405239 C12.703471,6.3277468 14.7376052,6.56625132 16.1976305,7.66596211 C16.4088292,7.82676381 16.6962829,7.88036435 16.9609798,7.80841729 C17.226076,7.73647023 17.4324838,7.54868845 17.5099365,7.30946441 C18.8054745,2.98796427 23.7428911,0.431325474 28.5385771,1.59830688 C33.3346624,2.7656479 36.17207,7.21485409 34.8769314,11.5359945 C34.801874,11.8075946 34.9036805,12.0935842 35.1400314,12.2752506 C35.3767814,12.4565572 35.7065547,12.5015241 35.9920123,12.391445 C38.9595725,11.2366947 42.4034276,11.7658654 44.7789132,13.7411719 C47.1539994,15.7164784 48.0147635,18.7673935 46.9751393,21.5251243 C45.9351158,24.2828551 43.1899329,26.2297425 39.9708506,26.4923493 C39.7253172,26.5124945 39.4801831,26.5265242 39.2266649,26.5265242 C38.775123,26.5265242 38.4090188,26.8560417 38.4090188,27.2632621 C38.4090188,27.6701227 38.775123,28 39.2266649,28 C39.5300883,28 39.8235306,27.9845314 40.1169729,27.9600694 C45.3242767,27.5139976 49.2272592,23.4655365 48.9897107,18.7573209 C48.7521622,14.0491053 44.4571246,10.336637 39.2266649,10.3182905 L39.2266649,10.3182905 Z" id="Path" fill="url(#linearGradient-5)"></path>
                <path d="M7.2705579,16.0005144 C4.91268231,16.039224 3.01683946,17.9415814 3,20.2857878 C3,20.6802086 3.32170388,21 3.71848375,21 C4.11526361,21 4.43696749,20.6802086 4.43696749,20.2857878 C4.45029869,18.7206586 5.71781915,17.4523041 7.29230892,17.4289388 C7.68908869,17.4230102 8.00588111,17.0983366 7.99991716,16.7039157 C8.00132044,16.5131569 7.92449037,16.3300703 7.78661729,16.1972016 C7.64874421,16.0643331 7.46245764,15.9931908 7.2705579,16.0005144 Z" id="Path" fill="url(#linearGradient-6)"></path>
                <path d="M39.7777778,14.5555556 C42.3541667,14.5578342 44.441786,16.6458333 44.4444444,19.2222222 C44.4444444,19.6517469 44.7926975,20 45.2222222,20 C45.651747,20 46,19.6517469 46,19.2222222 C45.9962022,15.7871636 43.2124566,13.0037977 39.7777778,13 C39.348253,13 39,13.3478732 39,13.7777778 C39,14.2073024 39.348253,14.5555556 39.7777778,14.5555556 Z" id="Path" fill="url(#linearGradient-7)"></path>
                <path d="M32.1299041,9 C32.2054588,8.99963121 32.2810137,8.99077964 32.3540217,8.97418296 C32.8183867,8.86685764 33.0942891,8.45304665 32.9703453,8.04993137 C32.3417122,5.99673576 30.6442757,4.31678131 28.3823004,3.50981308 C26.1203251,2.70247596 23.5544327,2.86069787 21.4461138,3.93690134 C21.1702114,4.07041258 20.9995764,4.32341994 21,4.59781864 C21.0004253,4.87221735 21.1719093,5.12448712 21.4478117,5.25762948 C21.7241386,5.39040305 22.0615885,5.38302683 22.329426,5.23771349 C23.9691352,4.40124003 25.9641219,4.27916209 27.7226814,4.90688605 C29.481241,5.53497871 30.8009034,6.84095433 31.2903118,8.43718765 C31.39091,8.76875268 31.7355759,8.99963121 32.1299041,9 Z" id="Path" fill="url(#linearGradient-8)"></path>
            </g>
        </g>
    </g>
</svg>