<?xml version="1.0" encoding="UTF-8"?>
<svg width="229px" height="183px" viewBox="0 0 229 183" version="1.1" xmlns="http://www.w3.org/2000/svg" xmlns:xlink="http://www.w3.org/1999/xlink">
    <!-- Generator: Sketch 63.1 (92452) - https://sketch.com -->
    <title>co2</title>
    <desc>Created with Sketch.</desc>
    <g id="Home/Sign-In" stroke="none" stroke-width="1" fill="none" fill-rule="evenodd">
        <g id="Desktop-HD" transform="translate(-277.000000, -626.000000)" fill-rule="nonzero">
            <g id="co2" transform="translate(277.000000, 626.000000)">
                <path d="M183.324618,53.0654942 C179.359704,53.0654942 175.413448,53.5742624 171.58101,54.580699 C171.769459,52.817585 171.862751,51.0470707 171.860886,49.2765565 C171.868349,25.7455509 155.088834,5.49471452 131.806859,0.937999225 C108.524885,-3.62056649 85.2429112,8.78598429 76.2308955,30.5538759 C64.8548581,24.1230416 50.6110215,25.5790447 40.800425,34.1800077 C30.9879633,42.7791203 27.7824468,56.6157729 32.8239516,68.5986584 C12.9881872,71.4015105 -1.29669769,88.9216476 0.0933543386,108.741418 C1.48527257,128.561188 18.0800694,143.948198 38.1173447,144 C40.2276119,144 41.9385887,142.303488 41.9385887,140.211062 C41.9385887,138.116786 40.2276119,136.422125 38.1173447,136.422125 C21.2333423,136.422125 7.54739249,122.850031 7.54739249,106.110623 C7.54739249,89.3693636 21.2333423,75.7991207 38.1173447,75.7991207 L38.6976216,75.7991207 C40.1902951,75.9471261 41.6344564,75.2274495 42.4050494,73.9527533 C43.1663129,72.6669565 43.0972764,71.0592481 42.22966,69.8419036 C39.5297868,66.0418657 38.0930889,61.5018009 38.1173447,56.854432 C38.1136128,48.0370112 43.257739,40.0132696 51.312578,36.2779837 C59.3692827,32.5426978 68.8757468,33.7692925 75.6991302,39.424948 C76.6861609,40.2519282 78.029567,40.5275881 79.2666197,40.1575746 C80.5055387,39.7875612 81.4701793,38.8218263 81.8321523,37.5915312 C87.8868094,15.3666734 110.961675,2.21824529 133.374166,8.21986394 C155.788524,14.2233321 169.049062,37.1049639 162.996271,59.3279718 C162.645493,60.7247722 163.121283,62.1955758 164.225861,63.1298601 C165.332305,64.062294 166.873491,64.2935523 168.207568,63.7274315 C182.07637,57.7887158 198.171121,60.5101649 209.27288,70.6688838 C220.372773,80.8276032 224.395528,96.5180235 219.536876,110.700639 C214.676358,124.883255 201.846829,134.895819 186.802547,136.246368 C185.655054,136.349972 184.509427,136.422125 183.324618,136.422125 C181.21435,136.422125 179.503374,138.116786 179.503374,140.211062 C179.503374,142.303488 181.21435,144 183.324618,144 C184.742657,144 186.114051,143.920447 187.485445,143.794642 C211.82162,141.500559 230.062089,120.679902 228.951913,96.4662216 C227.841738,72.2525414 207.769011,53.1598473 183.324618,53.0654942 L183.324618,53.0654942 Z" id="Path" fill="#194941"></path>
                <path d="M38.2069011,84.0026747 C25.945948,84.203965 16.0875652,94.0962231 16,106.286096 C16,108.337085 17.6728602,110 19.7361155,110 C21.7993708,110 23.4722309,108.337085 23.4722309,106.286096 C23.5415532,98.1474248 30.1326596,91.5519814 38.3200064,91.4304819 C40.3832612,91.3996533 42.0305818,89.7113503 41.9995692,87.6603619 C42.0068663,86.6684158 41.6073499,85.7163655 40.8904099,85.0254485 C40.1734699,84.334532 39.2047797,83.9645923 38.2069011,84.0026747 Z" id="Path" fill="#000000"></path>
                <path d="M182.777778,75.5555556 C195.291667,75.566623 205.431532,85.7083333 205.444444,98.2222222 C205.444444,100.308485 207.135959,102 209.222222,102 C211.308485,102 213,100.308485 213,98.2222222 C212.981554,81.5376516 199.460503,68.0184459 182.777778,68 C180.691515,68 179,69.6896697 179,71.7777778 C179,73.8640404 180.691515,75.5555556 182.777778,75.5555556 Z" id="Path" fill="#000000"></path>
                <path d="M151.157076,47 C151.490777,46.9980946 151.824477,46.9523615 152.146929,46.866612 C154.197874,46.3120978 155.416444,44.1740743 154.869025,42.0913121 C152.092562,31.4831348 144.595551,22.8033701 134.60516,18.6340342 C124.614769,14.4627925 113.282078,15.2802723 103.970336,20.8406569 C102.751767,21.530465 101.998129,22.8376697 102,24.2553963 C102.001879,25.673123 102.759266,26.9765168 103.977835,27.664419 C105.198279,28.3504158 106.688682,28.3123053 107.871632,27.5615197 C115.113681,23.2397401 123.924872,22.6090041 131.691843,25.8522446 C139.458814,29.09739 145.287323,35.8449307 147.448877,44.0921362 C147.893186,45.8052222 149.41546,46.9980946 151.157076,47 Z" id="Path" fill="#000000"></path>
                <path d="M125.333333,114 L109.666667,114 C101.014811,114 94,120.764214 94,129.111111 L94,166.888889 C94,175.233941 101.014811,182 109.666667,182 L125.333333,182 C133.985189,182 141,175.233941 141,166.888889 L141,129.111111 C141,120.764214 133.985189,114 125.333333,114 Z M133.166667,166.888889 C133.166667,171.061415 129.659261,174.444444 125.333333,174.444444 L109.666667,174.444444 C105.340739,174.444444 101.833333,171.061415 101.833333,166.888889 L101.833333,129.111111 C101.833333,124.93674 105.340739,121.555556 109.666667,121.555556 L125.333333,121.555556 C129.659261,121.555556 133.166667,124.93674 133.166667,129.111111 L133.166667,166.888889 Z" id="Shape" fill="#000000"></path>
                <path d="M60.6666667,121.555556 L76.3333333,121.555556 C80.6592608,121.555556 84.1666667,124.93674 84.1666667,129.111111 C84.1666667,131.197374 85.9203693,132.888889 88.0833333,132.888889 C90.2462973,132.888889 92,131.197374 92,129.111111 C92,120.764214 84.9851888,114 76.3333333,114 L60.6666667,114 C52.0148112,114 45,120.764214 45,129.111111 L45,166.888889 C45,175.233941 52.0148112,182 60.6666667,182 L76.3333333,182 C84.9851888,182 92,175.233941 92,166.888889 C92,164.800781 90.2462973,163.111111 88.0833333,163.111111 C85.9203693,163.111111 84.1666667,164.800781 84.1666667,166.888889 C84.1666667,171.061415 80.6592608,174.444444 76.3333333,174.444444 L60.6666667,174.444444 C56.3407392,174.444444 52.8333333,171.061415 52.8333333,166.888889 L52.8333333,129.111111 C52.8333333,124.93674 56.3407392,121.555556 60.6666667,121.555556 Z" id="Path" fill="#000000"></path>
                <path d="M164.375,137 L156.625,137 C150.205139,137 145,142.147298 145,148.5 C145,150.616943 146.735046,152.333333 148.875,152.333333 C151.014954,152.333333 152.75,150.616943 152.75,148.5 C152.75,146.381184 154.485046,144.666667 156.625,144.666667 L164.375,144.666667 C166.514954,144.666667 168.25,146.381184 168.25,148.5 L168.25,152.063802 C168.25,153.345947 167.602906,154.541992 166.526306,155.253255 L150.176758,166.032633 C146.943176,168.166422 145,171.756429 145,175.600992 L145,179.166667 C145,181.28361 146.735046,183 148.875,183 L172.125,183 C174.264954,183 176,181.28361 176,179.166667 C176,177.047851 174.264954,175.333333 172.125,175.333333 L152.75,175.333333 C152.833252,174.148519 153.467102,173.070394 154.466126,172.411539 L170.815674,161.632161 C174.051148,159.502116 175.998108,155.910237 176,152.063802 L176,148.5 C176,142.147298 170.794861,137 164.375,137 Z" id="Path" fill="#000000"></path>
            </g>
        </g>
    </g>
</svg>