<?xml version="1.0" encoding="UTF-8"?>
<svg width="1088px" height="1024px" viewBox="0 0 1088 1024" version="1.1" xmlns="http://www.w3.org/2000/svg" xmlns:xlink="http://www.w3.org/1999/xlink">
    <!-- Generator: Sketch 63.1 (92452) - https://sketch.com -->
    <title>Dark Dashboard</title>
    <desc>Created with Sketch.</desc>
    <defs>
        <path d="M6,0 L1080,0 C1083.31371,-6.08718376e-16 1086,2.6862915 1086,6 L1086,1047 L1086,1047 L0,1047 L0,6 C-4.05812251e-16,2.6862915 2.6862915,6.08718376e-16 6,0 Z" id="path-1"></path>
        <filter x="-0.7%" y="-0.7%" width="101.5%" height="101.5%" filterUnits="objectBoundingBox" id="filter-3">
            <feOffset dx="0" dy="1" in="SourceAlpha" result="shadowOffsetOuter1"></feOffset>
            <feGaussianBlur stdDeviation="2.5" in="shadowOffsetOuter1" result="shadowBlurOuter1"></feGaussianBlur>
            <feColorMatrix values="0 0 0 0 0   0 0 0 0 0   0 0 0 0 0  0 0 0 0.2 0" type="matrix" in="shadowBlurOuter1" result="shadowMatrixOuter1"></feColorMatrix>
            <feMorphology radius="1" operator="erode" in="SourceAlpha" result="shadowSpreadOuter2"></feMorphology>
            <feOffset dx="0" dy="3" in="shadowSpreadOuter2" result="shadowOffsetOuter2"></feOffset>
            <feGaussianBlur stdDeviation="0.5" in="shadowOffsetOuter2" result="shadowBlurOuter2"></feGaussianBlur>
            <feColorMatrix values="0 0 0 0 0   0 0 0 0 0   0 0 0 0 0  0 0 0 0.12 0" type="matrix" in="shadowBlurOuter2" result="shadowMatrixOuter2"></feColorMatrix>
            <feOffset dx="0" dy="2" in="SourceAlpha" result="shadowOffsetOuter3"></feOffset>
            <feGaussianBlur stdDeviation="1" in="shadowOffsetOuter3" result="shadowBlurOuter3"></feGaussianBlur>
            <feColorMatrix values="0 0 0 0 0   0 0 0 0 0   0 0 0 0 0  0 0 0 0.14 0" type="matrix" in="shadowBlurOuter3" result="shadowMatrixOuter3"></feColorMatrix>
            <feMerge>
                <feMergeNode in="shadowMatrixOuter1"></feMergeNode>
                <feMergeNode in="shadowMatrixOuter2"></feMergeNode>
                <feMergeNode in="shadowMatrixOuter3"></feMergeNode>
            </feMerge>
        </filter>
        <path d="M6,0 L130,0 C133.313708,-6.08718376e-16 136,2.6862915 136,6 L136,28 C136,31.3137085 133.313708,34 130,34 L6,34 C2.6862915,34 4.05812251e-16,31.3137085 0,28 L0,6 C-4.05812251e-16,2.6862915 2.6862915,2.38507522e-15 6,0 Z" id="path-4"></path>
        <linearGradient x1="50%" y1="33.5488809%" x2="50%" y2="100%" id="linearGradient-6">
            <stop stop-color="#78C1B7" offset="0%"></stop>
            <stop stop-color="#000000" offset="100%"></stop>
        </linearGradient>
        <radialGradient cx="50%" cy="0%" fx="50%" fy="0%" r="110.526316%" gradientTransform="translate(0.500000,0.000000),scale(1.000000,0.904762),rotate(90.000000),translate(-0.500000,-0.000000)" id="radialGradient-7">
            <stop stop-color="#EFFAFB" offset="0%"></stop>
            <stop stop-color="#B6DFE1" offset="100%"></stop>
        </radialGradient>
        <radialGradient cx="50%" cy="0%" fx="50%" fy="0%" r="100%" gradientTransform="translate(0.500000,0.000000),scale(0.625000,1.000000),rotate(90.000000),translate(-0.500000,-0.000000)" id="radialGradient-8">
            <stop stop-color="#EFFAFB" offset="0%"></stop>
            <stop stop-color="#B6DFE1" offset="100%"></stop>
        </radialGradient>
        <path d="M6,0 L130,0 C133.313708,-6.08718376e-16 136,2.6862915 136,6 L136,28 C136,31.3137085 133.313708,34 130,34 L6,34 C2.6862915,34 4.05812251e-16,31.3137085 0,28 L0,6 C-4.05812251e-16,2.6862915 2.6862915,2.38507522e-15 6,0 Z" id="path-9"></path>
        <linearGradient x1="50%" y1="0%" x2="50%" y2="100%" id="linearGradient-11">
            <stop stop-color="#78C1B7" offset="0%"></stop>
            <stop stop-color="#194941" offset="100%"></stop>
        </linearGradient>
        <linearGradient x1="50%" y1="42.0924831%" x2="50%" y2="100%" id="linearGradient-12">
            <stop stop-color="#9DDED8" offset="0%"></stop>
            <stop stop-color="#000000" offset="100%"></stop>
        </linearGradient>
        <linearGradient x1="50%" y1="0%" x2="50%" y2="100%" id="linearGradient-13">
            <stop stop-color="#9DDED8" offset="42.0924831%"></stop>
            <stop stop-color="#000000" offset="100%"></stop>
        </linearGradient>
        <linearGradient x1="50%" y1="0%" x2="50%" y2="100%" id="linearGradient-14">
            <stop stop-color="#9DDED8" offset="42.0924831%"></stop>
            <stop stop-color="#000000" offset="100%"></stop>
        </linearGradient>
        <path d="M6,0 L130,0 C133.313708,-6.08718376e-16 136,2.6862915 136,6 L136,28 C136,31.3137085 133.313708,34 130,34 L6,34 C2.6862915,34 4.05812251e-16,31.3137085 0,28 L0,6 C-4.05812251e-16,2.6862915 2.6862915,2.38507522e-15 6,0 Z" id="path-15"></path>
        <rect id="path-17" x="54" y="138" width="187" height="55" rx="13"></rect>
        <filter x="-4.0%" y="-10.0%" width="108.0%" height="127.3%" filterUnits="objectBoundingBox" id="filter-18">
            <feMorphology radius="0.5" operator="dilate" in="SourceAlpha" result="shadowSpreadOuter1"></feMorphology>
            <feOffset dx="0" dy="2" in="shadowSpreadOuter1" result="shadowOffsetOuter1"></feOffset>
            <feMorphology radius="1" operator="erode" in="SourceAlpha" result="shadowInner"></feMorphology>
            <feOffset dx="0" dy="2" in="shadowInner" result="shadowInner"></feOffset>
            <feComposite in="shadowOffsetOuter1" in2="shadowInner" operator="out" result="shadowOffsetOuter1"></feComposite>
            <feGaussianBlur stdDeviation="2" in="shadowOffsetOuter1" result="shadowBlurOuter1"></feGaussianBlur>
            <feColorMatrix values="0 0 0 0 0   0 0 0 0 0   0 0 0 0 0  0 0 0 0.5 0" type="matrix" in="shadowBlurOuter1"></feColorMatrix>
        </filter>
        <rect id="path-19" x="842" y="138" width="187" height="55" rx="13"></rect>
        <filter x="-4.0%" y="-10.0%" width="108.0%" height="127.3%" filterUnits="objectBoundingBox" id="filter-20">
            <feMorphology radius="0.5" operator="dilate" in="SourceAlpha" result="shadowSpreadOuter1"></feMorphology>
            <feOffset dx="0" dy="2" in="shadowSpreadOuter1" result="shadowOffsetOuter1"></feOffset>
            <feMorphology radius="1" operator="erode" in="SourceAlpha" result="shadowInner"></feMorphology>
            <feOffset dx="0" dy="2" in="shadowInner" result="shadowInner"></feOffset>
            <feComposite in="shadowOffsetOuter1" in2="shadowInner" operator="out" result="shadowOffsetOuter1"></feComposite>
            <feGaussianBlur stdDeviation="2" in="shadowOffsetOuter1" result="shadowBlurOuter1"></feGaussianBlur>
            <feColorMatrix values="0 0 0 0 0   0 0 0 0 0   0 0 0 0 0  0 0 0 0.5 0" type="matrix" in="shadowBlurOuter1"></feColorMatrix>
        </filter>
        <rect id="path-21" x="645" y="138" width="188" height="55" rx="13"></rect>
        <filter x="-4.0%" y="-10.0%" width="108.0%" height="127.3%" filterUnits="objectBoundingBox" id="filter-22">
            <feMorphology radius="0.5" operator="dilate" in="SourceAlpha" result="shadowSpreadOuter1"></feMorphology>
            <feOffset dx="0" dy="2" in="shadowSpreadOuter1" result="shadowOffsetOuter1"></feOffset>
            <feMorphology radius="1" operator="erode" in="SourceAlpha" result="shadowInner"></feMorphology>
            <feOffset dx="0" dy="2" in="shadowInner" result="shadowInner"></feOffset>
            <feComposite in="shadowOffsetOuter1" in2="shadowInner" operator="out" result="shadowOffsetOuter1"></feComposite>
            <feGaussianBlur stdDeviation="2" in="shadowOffsetOuter1" result="shadowBlurOuter1"></feGaussianBlur>
            <feColorMatrix values="0 0 0 0 0   0 0 0 0 0   0 0 0 0 0  0 0 0 0.5 0" type="matrix" in="shadowBlurOuter1"></feColorMatrix>
        </filter>
        <rect id="path-23" x="449" y="138" width="186" height="55" rx="13"></rect>
        <filter x="-4.0%" y="-10.0%" width="108.1%" height="127.3%" filterUnits="objectBoundingBox" id="filter-24">
            <feMorphology radius="0.5" operator="dilate" in="SourceAlpha" result="shadowSpreadOuter1"></feMorphology>
            <feOffset dx="0" dy="2" in="shadowSpreadOuter1" result="shadowOffsetOuter1"></feOffset>
            <feMorphology radius="1" operator="erode" in="SourceAlpha" result="shadowInner"></feMorphology>
            <feOffset dx="0" dy="2" in="shadowInner" result="shadowInner"></feOffset>
            <feComposite in="shadowOffsetOuter1" in2="shadowInner" operator="out" result="shadowOffsetOuter1"></feComposite>
            <feGaussianBlur stdDeviation="2" in="shadowOffsetOuter1" result="shadowBlurOuter1"></feGaussianBlur>
            <feColorMatrix values="0 0 0 0 0   0 0 0 0 0   0 0 0 0 0  0 0 0 0.5 0" type="matrix" in="shadowBlurOuter1"></feColorMatrix>
        </filter>
        <rect id="path-25" x="250" y="138" width="188" height="55" rx="13"></rect>
        <filter x="-4.0%" y="-10.0%" width="108.0%" height="127.3%" filterUnits="objectBoundingBox" id="filter-26">
            <feMorphology radius="0.5" operator="dilate" in="SourceAlpha" result="shadowSpreadOuter1"></feMorphology>
            <feOffset dx="0" dy="2" in="shadowSpreadOuter1" result="shadowOffsetOuter1"></feOffset>
            <feMorphology radius="1" operator="erode" in="SourceAlpha" result="shadowInner"></feMorphology>
            <feOffset dx="0" dy="2" in="shadowInner" result="shadowInner"></feOffset>
            <feComposite in="shadowOffsetOuter1" in2="shadowInner" operator="out" result="shadowOffsetOuter1"></feComposite>
            <feGaussianBlur stdDeviation="2" in="shadowOffsetOuter1" result="shadowBlurOuter1"></feGaussianBlur>
            <feColorMatrix values="0 0 0 0 0   0 0 0 0 0   0 0 0 0 0  0 0 0 0.5 0" type="matrix" in="shadowBlurOuter1"></feColorMatrix>
        </filter>
    </defs>
    <g id="Dark-Dashboard" stroke="none" stroke-width="1" fill="none" fill-rule="evenodd">
        <g id="Backdrop-/-Elements-/-Front-Layer" transform="translate(1.000000, -23.000000)">
            <mask id="mask-2" fill="white">
                <use xlink:href="#path-1"></use>
            </mask>
            <g id="Surface">
                <use fill="black" fill-opacity="1" filter="url(#filter-3)" xlink:href="#path-1"></use>
                <use fill="#FAFAFA" fill-rule="evenodd" xlink:href="#path-1"></use>
            </g>
            <g id="✱-/-Color-/-Surface-/-Main" mask="url(#mask-2)" fill="#111614" fill-rule="evenodd">
                <g id="✱-/-Color-/-Secondary-/-900">
                    <rect id="Rectangle-13" x="0" y="0" width="1086" height="1047"></rect>
                </g>
            </g>
        </g>
        <g id="print-24px" transform="translate(997.000000, 13.000000)" fill="#798584" fill-rule="nonzero">
            <path d="M27.2,7.83783784 L4.8,7.83783784 C2.144,7.83783784 0,10.0191684 0,12.7214137 L0,22.4885655 L6.4,22.4885655 L6.4,29 L25.6,29 L25.6,22.4885655 L32,22.4885655 L32,12.7214137 C32,10.0191684 29.856,7.83783784 27.2,7.83783784 Z M22.6341463,25.8648649 L10.1463415,25.8648649 L10.1463415,18.027027 L22.6341463,18.027027 L22.6341463,25.8648649 Z M27.3170732,14.1081081 C26.4585366,14.1081081 25.7560976,13.4027027 25.7560976,12.5405405 C25.7560976,11.6783784 26.4585366,10.972973 27.3170732,10.972973 C28.1756098,10.972973 28.8780488,11.6783784 28.8780488,12.5405405 C28.8780488,13.4027027 28.1756098,14.1081081 27.3170732,14.1081081 Z M25.7560976,0 L6.24390244,0 L6.24390244,6.27027027 L25.7560976,6.27027027 L25.7560976,0 Z" id="Shape"></path>
        </g>
        <g id="Water-Group" transform="translate(707.000000, 541.000000)">
            <g id="Water-Frame">
                <path d="M59.638852,47.5665914 L294.361148,47.5665914 C303.276335,47.5665914 306.509198,48.4948475 309.768457,50.2379185 C313.027716,51.9809894 315.585602,54.5388751 317.328673,57.7981344 C319.071744,61.0573936 320,64.290256 320,73.2054434 L320,413.361148 C320,422.276335 319.071744,425.509198 317.328673,428.768457 C315.585602,432.027716 313.027716,434.585602 309.768457,436.328673 C306.509198,438.071744 303.276335,439 294.361148,439 L59.638852,439 C50.7236646,439 47.4908022,438.071744 44.231543,436.328673 C40.9722837,434.585602 38.414398,432.027716 36.671327,428.768457 C34.9282561,425.509198 34,422.276335 34,413.361148 L34,73.2054434 C34,64.290256 34.9282561,61.0573936 36.671327,57.7981344 C38.414398,54.5388751 40.9722837,51.9809894 44.231543,50.2379185 C47.4908022,48.4948475 50.7236646,47.5665914 59.638852,47.5665914 Z" id="Rectangle" stroke="#9C9C9C"></path>
                <rect id="Rectangle" fill="#111614" x="0" y="0" width="94" height="100.088036"></rect>
            </g>
            <g id="drop" transform="translate(24.000000, 10.000000)" fill="" fill-rule="nonzero">
                <path d="M41.2838164,21.2311146 L26.9999133,0 L12.7160103,21.2311146 C10.653944,24.2948322 8.42458821,27.4084695 6.08869489,30.4865709 C1.85890571,36.0581203 -0.292088298,43.105263 0.0319255276,50.3283942 C0.358580826,57.5972143 3.17697299,64.4294485 7.967623,69.566104 C13.0391437,75.0048162 19.7994103,78 27.0007938,78 C34.2021772,78 40.9615634,75.0048162 46.0339645,69.566104 C50.8246145,64.4286024 53.6421261,57.5972143 53.9679009,50.3283942 C54.2927952,43.104417 52.1426818,36.0572743 47.9120122,30.4857249 C45.5752385,27.4084695 43.3450021,24.2948322 41.2838164,21.2311146 Z M31.0923488,68.4069509 C30.2206811,68.4069509 29.5145424,67.7275351 29.5145424,66.8907449 C29.5145424,66.0531089 30.2206811,65.3745389 31.0923488,65.3745389 C34.7418444,65.3745389 38.0143856,63.5862029 40.2075928,60.7736772 C42.4007999,57.9611514 43.0394781,55.5811035 43.0394781,52.3877945 C43.0394781,51.5501584 43.7464975,50.8715884 44.6172846,50.8715884 C45.4889523,50.8715884 46.195091,51.5501584 46.195091,52.3877945 C46.195091,61.2210482 39.4189758,68.4069509 31.0923488,68.4069509 Z" id="Shape"></path>
            </g>
            <g id="Buttons-/-Outlined-/-Focused" transform="translate(105.000000, 397.000000)">
                <mask id="mask-5" fill="white">
                    <use xlink:href="#path-4"></use>
                </mask>
                <path stroke-opacity="0.12" stroke="#000000" stroke-width="1" d="M130,0.5 L6,0.5 C4.48121694,0.5 3.10621694,1.11560847 2.1109127,2.1109127 C1.11560847,3.10621694 0.5,4.48121694 0.5,6 L0.5,28 C0.5,29.5187831 1.11560847,30.8937831 2.1109127,31.8890873 C3.10621694,32.8843915 4.48121694,33.5 6,33.5 L130,33.5 C131.518783,33.5 132.893783,32.8843915 133.889087,31.8890873 C134.884392,30.8937831 135.5,29.5187831 135.5,28 L135.5,6 C135.5,4.48121694 134.884392,3.10621694 133.889087,2.1109127 C132.893783,1.11560847 131.518783,0.5 130,0.5 Z"></path>
                <g id="✱-/-Text-/-Button-/-Black-/-High-Emphasis-/-Center" mask="url(#mask-5)" font-family="Roboto-Medium, Roboto" font-size="14" font-weight="400" letter-spacing="1.25" line-spacing="16">
                    <g transform="translate(16.000000, 9.000000)" id="Button">
                        <text>
                            <tspan x="10.6083984" y="13.1728516" fill="#A9AFAD">EXPLORE</tspan>
                        </text>
                    </g>
                </g>
                <g id="✱-/-STATE-OVERLAY-/-Primary-/-Focused" mask="url(#mask-5)" fill="#00796B" fill-rule="evenodd" opacity="0.12">
                    <g id="✱-/-Color-/-Primary-/-700">
                        <rect id="Rectangle-13" x="0" y="0" width="147.333333" height="34"></rect>
                    </g>
                </g>
            </g>
        </g>
        <g id="Waste-Group" transform="translate(360.000000, 541.000000)">
            <g id="Waste-Frame">
                <path d="M59.638852,48 L294.361148,48 C303.276335,48 306.509198,48.9282561 309.768457,50.671327 C313.027716,52.414398 315.585602,54.9722837 317.328673,58.231543 C319.071744,61.4908022 320,64.7236646 320,73.638852 L320,413.361148 C320,422.276335 319.071744,425.509198 317.328673,428.768457 C315.585602,432.027716 313.027716,434.585602 309.768457,436.328673 C306.509198,438.071744 303.276335,439 294.361148,439 L59.638852,439 C50.7236646,439 47.4908022,438.071744 44.231543,436.328673 C40.9722837,434.585602 38.414398,432.027716 36.671327,428.768457 C34.9282561,425.509198 34,422.276335 34,413.361148 L34,73.638852 C34,64.7236646 34.9282561,61.4908022 36.671327,58.231543 C38.414398,54.9722837 40.9722837,52.414398 44.231543,50.671327 C47.4908022,48.9282561 50.7236646,48 59.638852,48 Z" id="Rectangle" stroke="#9C9C9C"></path>
                <rect id="Rectangle" fill="#111614" x="0" y="0" width="96" height="112"></rect>
            </g>
            <g id="Waste-Icon" transform="translate(19.000000, 16.000000)" fill-rule="nonzero">
                <path d="M56.2560577,27.9027742 C56.3013654,27.9075484 56.3457788,27.9096371 56.3887019,27.9096371 C56.9884327,27.9096371 57.5052981,27.4584758 57.5729615,26.8476774 L58.3139808,20.1545565 C60.4216827,19.6610242 62,17.774621 62,15.516129 L62,14.3225806 C62,11.6896129 59.861,9.5483871 57.2307692,9.5483871 L45.3076923,9.5483871 L45.3076923,3.58064516 C45.3076923,1.60621774 43.7031442,0 41.7307692,0 L20.2692308,0 C18.2968558,0 16.6923077,1.60621774 16.6923077,3.58064516 L16.6923077,9.5483871 L4.76923077,9.5483871 C2.139,9.5483871 0,11.6896129 0,14.3225806 L0,15.516129 C0,17.7749194 1.57831731,19.6613226 3.68631731,20.1548548 L9.00281731,68.2035323 C9.17629808,71.4544597 12.2444038,74 15.9891442,74 L59.6153846,74 C60.2744327,74 60.8076923,73.4661855 60.8076923,72.8064516 C60.8076923,72.1467177 60.2744327,71.6129032 59.6153846,71.6129032 L51.5771442,71.6129032 C52.4057981,70.6741774 52.9253462,69.5241935 52.9915192,68.2724597 L56.8596635,33.2970161 C56.9317981,32.6420565 56.4602404,32.0509516 55.8059615,31.9787419 C55.1340962,31.9110081 54.5611923,32.3809677 54.4890577,33.0335403 L50.61525,68.0776129 C50.5103269,70.0603952 48.487875,71.6129032 46.0114519,71.6129032 L44.1153846,71.6129032 L44.1153846,69.2258065 C44.1153846,67.251379 42.5108365,65.6451613 40.5384615,65.6451613 C38.5660865,65.6451613 36.9615385,67.251379 36.9615385,69.2258065 L36.9615385,71.6129032 L34.5769231,71.6129032 L34.5769231,69.2258065 C34.5769231,67.251379 32.972375,65.6451613 31,65.6451613 C29.027625,65.6451613 27.4230769,67.251379 27.4230769,69.2258065 L27.4230769,71.6129032 L25.0384615,71.6129032 L25.0384615,69.2258065 C25.0384615,67.251379 23.4339135,65.6451613 21.4615385,65.6451613 C19.4891635,65.6451613 17.8846154,67.251379 17.8846154,69.2258065 L17.8846154,71.6129032 L15.9891442,71.6129032 C13.5124231,71.6129032 11.4899712,70.0603952 11.3793846,68.0089839 L6.10133654,20.2903226 L55.8992596,20.2903226 L55.2023558,26.5845 C55.1302212,27.2394597 55.6017788,27.829371 56.2560577,27.9027742 Z M39.3461538,69.2258065 C39.3461538,68.5672661 39.8806058,68.0322581 40.5384615,68.0322581 C41.1963173,68.0322581 41.7307692,68.5672661 41.7307692,69.2258065 L41.7307692,71.6129032 L39.3461538,71.6129032 L39.3461538,69.2258065 Z M29.8076923,69.2258065 C29.8076923,68.5672661 30.3421442,68.0322581 31,68.0322581 C31.6578558,68.0322581 32.1923077,68.5672661 32.1923077,69.2258065 L32.1923077,71.6129032 L29.8076923,71.6129032 L29.8076923,69.2258065 Z M20.2692308,69.2258065 C20.2692308,68.5672661 20.8036827,68.0322581 21.4615385,68.0322581 C22.1193942,68.0322581 22.6538462,68.5672661 22.6538462,69.2258065 L22.6538462,71.6129032 L20.2692308,71.6129032 L20.2692308,69.2258065 Z M19.0769231,3.58064516 C19.0769231,2.92210484 19.611375,2.38709677 20.2692308,2.38709677 L41.7307692,2.38709677 C42.388625,2.38709677 42.9230769,2.92210484 42.9230769,3.58064516 L42.9230769,11.9354839 C42.9230769,12.5940242 42.388625,13.1290323 41.7307692,13.1290323 C41.0729135,13.1290323 40.5384615,12.5940242 40.5384615,11.9354839 L40.5384615,5.96774194 C40.5384615,5.30800806 40.0052019,4.77419355 39.3461538,4.77419355 L22.6538462,4.77419355 C21.9947981,4.77419355 21.4615385,5.30800806 21.4615385,5.96774194 L21.4615385,11.9354839 C21.4615385,12.5940242 20.9270865,13.1290323 20.2692308,13.1290323 C19.611375,13.1290323 19.0769231,12.5940242 19.0769231,11.9354839 L19.0769231,3.58064516 Z M38.1538462,9.5483871 L23.8461538,9.5483871 L23.8461538,7.16129032 L38.1538462,7.16129032 L38.1538462,9.5483871 Z M2.38461538,15.516129 L2.38461538,14.3225806 C2.38461538,13.0066935 3.45471154,11.9354839 4.76923077,11.9354839 L16.6923077,11.9354839 C16.6923077,13.9099113 18.2968558,15.516129 20.2692308,15.516129 C22.2416058,15.516129 23.8461538,13.9099113 23.8461538,11.9354839 L38.1538462,11.9354839 C38.1538462,13.9099113 39.7583942,15.516129 41.7307692,15.516129 C43.7031442,15.516129 45.3076923,13.9099113 45.3076923,11.9354839 L57.2307692,11.9354839 C58.5452885,11.9354839 59.6153846,13.0066935 59.6153846,14.3225806 L59.6153846,15.516129 C59.6153846,16.8320161 58.5452885,17.9032258 57.2307692,17.9032258 L4.76923077,17.9032258 C3.45471154,17.9032258 2.38461538,16.8320161 2.38461538,15.516129 Z" id="Shape" fill="url(#linearGradient-6)"></path>
                <path d="M51.9921633,45.4095955 C52.0473363,44.9148607 51.8075682,44.4344704 51.3870201,44.1958013 L44.2268439,40.1481927 C43.6730587,39.8359695 42.9819277,40.0325205 42.6596933,40.5928741 L38.4697665,47.8616003 C38.2232484,48.2894956 38.250835,48.8297058 38.5407872,49.2267755 C38.8307394,49.6250661 39.3261233,49.7953696 39.7845296,49.6677946 L41.1876283,49.269504 L42.0595392,52.4543024 L34.1738956,52.4543024 C33.5250248,52.4543024 33,53.0003114 33,53.6751163 L33,59.7791861 C33,60.1033122 33.123846,60.4146197 33.3439514,60.6435223 C33.5640568,60.8712041 33.8634002,61 34.1738956,61 L34.1762434,61 L45.1019831,60.9826034 C45.1069722,60.983519 45.1110808,60.9862658 45.1160698,60.9868763 C45.1732973,60.9963376 45.2296442,61 45.2856978,61 C45.4318478,61 45.5712479,60.9630704 45.704485,60.9096598 C46.0675122,60.791546 46.3460189,60.5061808 46.4625281,60.1301701 L50.8523106,52.9575829 C51.0266341,52.6725229 51.079166,52.3258117 50.9990476,51.9989388 L49.7277187,46.8461884 L51.1355129,46.446677 C51.5977343,46.3157447 51.9372836,45.9043304 51.9921633,45.4095955 L51.9921633,45.4095955 Z M35.3477912,54.8959303 L42.7277793,54.8959303 L43.7264709,58.5431119 L35.3477912,58.5559305 L35.3477912,54.8959303 Z M45.6986155,56.8309204 L43.1271972,47.4398091 C42.9804603,46.9044822 42.5103151,46.5541086 41.9990836,46.5541086 C41.9852903,46.5541086 41.9726709,46.5541086 41.9600516,46.5541086 L44.0944872,42.8535164 L47.74002,44.9136399 C47.2804398,45.1758097 47.0304001,45.7373841 47.1668654,46.2882764 L48.5987246,52.0932467 L45.6986155,56.8309204 Z" id="Shape" fill="url(#radialGradient-7)"></path>
                <path d="M35.8901591,38.4799873 C36.0940318,38.7144858 36.3844319,38.8594169 36.6982418,38.884345 C36.7293561,38.8866639 36.7607668,38.8878233 36.7918811,38.8878233 C37.073095,38.8878233 37.3451229,38.7904297 37.5605524,38.6104253 L42.5829926,34.4210476 C42.8227208,34.2216224 42.9717731,33.9363981 42.9963682,33.6297239 C43.0209633,33.3230497 42.9199159,33.0195641 42.7151542,32.7850656 L35.5458275,24.5895031 C35.5422716,24.583416 35.5410863,24.5764593 35.5372341,24.5706621 C35.4207777,24.3900779 35.2548348,24.2521036 35.0675564,24.1584781 C34.7493015,23.9752852 34.3694108,23.9503571 34.0271535,24.0865923 L25.8476493,25.2092284 C25.5222827,25.2532874 25.2318826,25.4277844 25.0431225,25.6892401 L22.0694847,29.8197758 L20.8530638,29.0078719 C20.4536155,28.740619 19.9294137,28.7394595 19.5255205,29.0020746 C19.1239979,29.2658492 18.9260517,29.741513 19.0253211,30.2055823 L20.7256434,38.0805573 C20.8435814,38.6240488 21.3334093,39 21.8842805,39 C21.9491761,39 22.0149606,38.9953622 22.0810414,38.9840576 L30.1965391,37.6547498 C30.6733286,37.576487 31.0544047,37.2222754 31.1584153,36.7602351 C31.2627223,36.2970354 31.0680357,35.8205021 30.6688837,35.5532491 L29.4557225,34.7436642 L30.848754,32.6960779 L35.8901591,38.4799873 Z M36.9249317,36.0929725 L32.2133382,30.6890724 L34.6405497,27.1211591 L40.1415574,33.4094287 L36.9249317,36.0929725 Z M26.9425763,35.8361546 L22.8103013,36.5132726 L21.9444348,32.5038993 C22.4410783,32.6885415 23.0174336,32.5288274 23.3345031,32.088237 L26.6856611,27.4345001 L32.0844361,26.6939023 L26.8326391,34.413801 C26.5256447,34.8656961 26.58491,35.4520873 26.9425763,35.8361546 L26.9425763,35.8361546 Z" id="Shape" fill="url(#radialGradient-8)"></path>
                <path d="M11.1476784,52.9571609 L15.5373915,60.1298522 C15.6538988,60.5058684 15.9326946,60.7912378 16.2954226,60.9093532 C16.4286576,60.9627646 16.5680555,60.9996948 16.7142032,60.9996948 C16.7702558,60.9996948 16.8266019,60.9960323 16.8838284,60.9865709 C16.8888174,60.9859604 16.892926,60.9832136 16.897915,60.9822979 L27.8237752,61 L27.826123,61 C28.1369069,61 28.4359521,60.8712023 28.656054,60.6435171 C28.876156,60.4146112 29,60.1032991 29,59.7791683 L29,53.6750099 C29,53.0001952 28.4749835,52.4541782 27.826123,52.4541782 L19.9406042,52.4541782 L20.8125013,49.2696387 L22.2155778,49.6679351 C22.6739768,49.795512 23.1705268,49.6249008 23.4593005,49.2269096 C23.7492481,48.8298341 23.7768342,48.2899213 23.5303201,47.8617146 L19.3392857,40.5928828 C19.0170564,40.032521 18.3247625,39.8359671 17.7721599,40.1481948 L10.6129775,44.1958623 C10.1921426,44.4342297 9.95267164,44.9146269 10.0078439,45.4096742 C10.0630161,45.9047214 10.4022665,46.3158365 10.8641871,46.4467707 L12.2719591,46.8462879 L11.0006503,51.9991132 C10.9205332,52.3253805 10.9733577,52.6724019 11.1476784,52.9571609 L11.1476784,52.9571609 Z M26.652246,54.8958416 L26.652246,58.555895 L18.2736988,58.5430762 L19.2723747,54.8958416 L26.652246,54.8958416 Z M14.258746,44.9134061 L17.9053949,42.8532526 L20.0389164,46.5538987 C19.4965852,46.551457 19.0232193,46.8911534 18.872963,47.4396121 L16.3015854,56.8308598 L13.4012288,52.0931172 L14.8330653,46.2880626 C14.9695285,45.7371623 14.7197862,45.1755797 14.258746,44.9134061 L14.258746,44.9134061 Z" id="Shape" fill="url(#radialGradient-7)"></path>
            </g>
            <g id="Buttons-/-Outlined-/-Focused" transform="translate(109.000000, 397.000000)">
                <mask id="mask-10" fill="white">
                    <use xlink:href="#path-9"></use>
                </mask>
                <path stroke-opacity="0.12" stroke="#000000" stroke-width="1" d="M130,0.5 L6,0.5 C4.48121694,0.5 3.10621694,1.11560847 2.1109127,2.1109127 C1.11560847,3.10621694 0.5,4.48121694 0.5,6 L0.5,28 C0.5,29.5187831 1.11560847,30.8937831 2.1109127,31.8890873 C3.10621694,32.8843915 4.48121694,33.5 6,33.5 L130,33.5 C131.518783,33.5 132.893783,32.8843915 133.889087,31.8890873 C134.884392,30.8937831 135.5,29.5187831 135.5,28 L135.5,6 C135.5,4.48121694 134.884392,3.10621694 133.889087,2.1109127 C132.893783,1.11560847 131.518783,0.5 130,0.5 Z"></path>
                <g id="✱-/-Text-/-Button-/-Black-/-High-Emphasis-/-Center" mask="url(#mask-10)" font-family="Roboto-Medium, Roboto" font-size="14" font-weight="400" letter-spacing="1.25" line-spacing="16">
                    <g transform="translate(16.000000, 9.000000)" id="Button">
                        <text>
                            <tspan x="10.6083984" y="13.1728516" fill="#A9AFAD">EXPLORE</tspan>
                        </text>
                    </g>
                </g>
                <g id="✱-/-STATE-OVERLAY-/-Primary-/-Focused" mask="url(#mask-10)" fill="#00796B" fill-rule="evenodd" opacity="0.12">
                    <g id="✱-/-Color-/-Primary-/-700">
                        <rect id="Rectangle-13" x="0" y="0" width="147.333333" height="34"></rect>
                    </g>
                </g>
            </g>
        </g>
        <g id="Carbon-Group" transform="translate(13.000000, 519.000000)">
            <g id="Cloud-Frame"></g>
            <path d="M58.8161095,69.3645418 L293.538406,69.3645418 C302.453593,69.3645418 305.686455,70.2927979 308.945715,72.0358689 C312.204974,73.7789398 314.76286,76.3368255 316.50593,79.5960848 C318.249001,82.8553441 319.177258,86.0882064 319.177258,95.0033938 L319.177258,434.72569 C319.177258,443.640877 318.249001,446.87374 316.50593,450.132999 C314.76286,453.392258 312.204974,455.950144 308.945715,457.693215 C305.686455,459.436286 302.453593,460.364542 293.538406,460.364542 L58.8161095,460.364542 C49.9009221,460.364542 46.6680597,459.436286 43.4088005,457.693215 C40.1495412,455.950144 37.5916555,453.392258 35.8485846,450.132999 C34.1055136,446.87374 33.1772575,443.640877 33.1772575,434.72569 L33.1772575,95.0033938 C33.1772575,86.0882064 34.1055136,82.8553441 35.8485846,79.5960848 C37.5916555,76.3368255 40.1495412,73.7789398 43.4088005,72.0358689 C46.6680597,70.2927979 49.9009221,69.3645418 58.8161095,69.3645418 Z" id="Rectangle" stroke="#9C9C9C"></path>
            <rect id="Rectangle" fill="#111614" x="0" y="0" width="166.956522" height="108.322709"></rect>
            <g id="co2" transform="translate(33.000000, 23.000000)" fill-rule="nonzero">
                <path d="M88.05986,23.2161537 C86.1553163,23.2161537 84.259735,23.4387398 82.4188256,23.8790558 C82.5093473,23.1076934 82.55416,22.3330934 82.5532638,21.5584935 C82.5568488,11.2636785 74.4968197,2.4039376 63.3133386,0.410374661 C52.1298577,-1.58399784 40.9463765,3.84386813 36.6174607,13.3673207 C31.1529886,10.5538307 24.310971,11.190832 19.5984574,14.9537534 C14.8850479,18.7158651 13.3452801,24.7694007 15.7669637,30.0119131 C6.23886722,31.2381608 -0.622867886,38.9032208 0.0448426954,47.5743704 C0.713449705,56.2455199 8.68474949,62.9773365 18.3096416,63 C19.323307,63 20.1451736,62.257776 20.1451736,61.3423397 C20.1451736,60.4260937 19.323307,59.6846795 18.3096416,59.6846795 C10.1994221,59.6846795 3.62538504,53.7468886 3.62538504,46.4233974 C3.62538504,39.0990966 10.1994221,33.1621153 18.3096416,33.1621153 L18.5883772,33.1621153 C19.3053819,33.2268676 19.9990839,32.9120092 20.3692377,32.3543296 C20.7349101,31.7917934 20.7017485,31.0884211 20.2849895,30.5558328 C18.9881072,28.8933163 18.2979903,26.9070379 18.3096416,24.873814 C18.3078489,21.0161924 20.7788266,17.5058055 24.6479632,15.8716179 C28.517996,14.2374303 33.0844199,14.7740655 36.3620276,17.2484147 C36.8361471,17.6102186 37.4814514,17.7308198 38.0756689,17.5689389 C38.6707828,17.407058 39.1341472,16.984549 39.3080208,16.4462949 C42.2163713,6.72291961 53.3003677,0.970482315 64.0661935,3.59619048 C74.8329157,6.22270778 81.2026061,16.2334217 78.295152,25.9559877 C78.1266559,26.5670878 78.3552012,27.2105644 78.8857847,27.6193138 C79.4172644,28.0272536 80.1575719,28.1284291 80.7983949,27.8807513 C87.4602649,25.2825632 95.1913681,26.4731971 100.524091,30.9176367 C105.855917,35.3620764 107.788245,42.2266353 105.454394,48.4315297 C103.119648,54.6364239 96.9569923,59.0169207 89.730481,59.607786 C89.1792836,59.6531127 88.6289826,59.6846795 88.05986,59.6846795 C87.0461946,59.6846795 86.224328,60.4260937 86.224328,61.3423397 C86.224328,62.257776 87.0461946,63 88.05986,63 C88.7410145,63 89.3997626,62.9651956 90.0585105,62.9101561 C101.748376,61.9064946 110.510174,52.7974571 109.976901,42.203972 C109.443629,31.6104869 99.8017084,23.2574332 88.05986,23.2161537 L88.05986,23.2161537 Z" id="Path" fill="url(#linearGradient-11)"></path>
                <path d="M18.249339,37.0011316 C12.5904376,37.0862929 8.04041471,41.271479 8,46.4287331 C8,47.296459 8.77208931,48 9.72436099,48 C10.6766327,48 11.448722,47.296459 11.448722,46.4287331 C11.4807168,42.985449 14.522766,40.195069 18.3015414,40.1436654 C19.2538129,40.1306225 20.0141147,39.4163405 19.9998012,38.5486146 C20.0031691,38.1289452 19.8187769,37.7261546 19.4878815,37.4338436 C19.1569861,37.1415327 18.7098983,36.9850198 18.249339,37.0011316 Z" id="Path" fill="url(#linearGradient-12)"></path>
                <path d="M87.7777778,32.3333333 C93.6666667,32.338216 98.438368,36.8125 98.4444444,42.3333333 C98.4444444,43.2537433 99.2404513,44 100.222222,44 C101.203993,44 102,43.2537433 102,42.3333333 C101.991319,34.9724933 95.6284722,29.0081379 87.7777778,29 C86.7960069,29 86,29.7454425 86,30.6666667 C86,31.5870767 86.7960069,32.3333333 87.7777778,32.3333333 Z" id="Path" fill="url(#linearGradient-13)"></path>
                <path d="M73.1147922,20 C73.2784942,19.999201 73.4421964,19.9800225 73.6003804,19.9440631 C74.6065044,19.7115249 75.2042931,18.8149344 74.9357481,17.941518 C73.5737097,13.4929275 69.8959307,9.85302617 64.9949841,8.104595 C60.0940377,6.35536458 54.5346042,6.69817871 49.9665799,9.0299529 C49.3687914,9.31922726 48.9990821,9.86740987 49,10.4619404 C49.0009216,11.0564709 49.3724701,11.6030554 49.9702586,11.8915305 C50.5689669,12.1792066 51.3001083,12.1632248 51.8804231,11.8483792 C55.4331263,10.0360201 59.7555974,9.77151785 63.5658097,11.1315864 C67.3760221,12.4924539 70.2352906,15.3220677 71.2956755,18.7805732 C71.5136384,19.4989641 72.2604145,19.999201 73.1147922,20 Z" id="Path" fill="url(#linearGradient-14)"></path>
            </g>
            <g id="Buttons-/-Outlined-/-Focused" transform="translate(106.000000, 418.000000)">
                <mask id="mask-16" fill="white">
                    <use xlink:href="#path-15"></use>
                </mask>
                <path stroke-opacity="0.12" stroke="#000000" stroke-width="1" d="M130,0.5 L6,0.5 C4.48121694,0.5 3.10621694,1.11560847 2.1109127,2.1109127 C1.11560847,3.10621694 0.5,4.48121694 0.5,6 L0.5,28 C0.5,29.5187831 1.11560847,30.8937831 2.1109127,31.8890873 C3.10621694,32.8843915 4.48121694,33.5 6,33.5 L130,33.5 C131.518783,33.5 132.893783,32.8843915 133.889087,31.8890873 C134.884392,30.8937831 135.5,29.5187831 135.5,28 L135.5,6 C135.5,4.48121694 134.884392,3.10621694 133.889087,2.1109127 C132.893783,1.11560847 131.518783,0.5 130,0.5 Z"></path>
                <g id="✱-/-Text-/-Button-/-Black-/-High-Emphasis-/-Center" mask="url(#mask-16)" font-family="Roboto-Medium, Roboto" font-size="14" font-weight="400" letter-spacing="1.25" line-spacing="16">
                    <g transform="translate(16.000000, 9.000000)" id="Button">
                        <text>
                            <tspan x="10.6083984" y="13.1728516" fill="#A9AFAD">EXPLORE</tspan>
                        </text>
                    </g>
                </g>
                <g id="✱-/-STATE-OVERLAY-/-Primary-/-Focused" mask="url(#mask-16)" fill="#00796B" fill-rule="evenodd" opacity="0.12">
                    <g id="✱-/-Color-/-Primary-/-700">
                        <rect id="Rectangle-13" x="0" y="0" width="147.333333" height="34"></rect>
                    </g>
                </g>
            </g>
        </g>
        <path d="M540.5,823 C587.168061,823 625,785.168061 625,738.5 C625,691.831939 587.168061,654 540.5,654 C493.831939,654 456,691.831939 456,738.5 C456,785.168061 493.831939,823 540.5,823 Z" id="Oval" stroke="#BBBB29" stroke-width="18" stroke-dasharray="342,9999"></path>
        <text id="YOUR-Environmental-D" font-family="Roboto-Regular, Roboto" font-size="48" font-weight="normal" fill="#FFFFFF">
            <tspan x="47" y="65">YOUR Environmental Dashboard</tspan>
        </text>
        <text id="01/01/2019---31/08-2" font-family="Roboto-Regular, Roboto" font-size="16" font-weight="normal" line-spacing="24" letter-spacing="0.150000006" fill="#80CBC4">
            <tspan x="47" y="100">01/01/2019 - 31/08 2019</tspan>
        </text>
        <text id="KPI-1" font-family="Roboto-Regular, Roboto" font-size="16" font-weight="normal" line-spacing="24" letter-spacing="0.150000006" fill="#FFFFFF">
            <tspan x="123" y="218">KPI 1</tspan>
        </text>
        <text id="KPI-2" font-family="Roboto-Regular, Roboto" font-size="16" font-weight="normal" line-spacing="24" letter-spacing="0.150000006" fill="#FFFFFF">
            <tspan x="324" y="218">KPI 2</tspan>
        </text>
        <text id="KPI-3" font-family="Roboto-Regular, Roboto" font-size="16" font-weight="normal" line-spacing="24" letter-spacing="0.150000006" fill="#FFFFFF">
            <tspan x="523" y="218">KPI 3</tspan>
        </text>
        <text id="Water" font-family="Roboto-Regular, Roboto" font-size="16" font-weight="normal" line-spacing="24" letter-spacing="0.150000006" fill="#FFFFFF">
            <tspan x="964" y="447">Water</tspan>
        </text>
        <text id="Waste" font-family="Roboto-Regular, Roboto" font-size="16" font-weight="normal" line-spacing="24" letter-spacing="0.150000006" fill="#FFFFFF">
            <tspan x="964" y="467">Waste</tspan>
        </text>
        <text id="Carbon" font-family="Roboto-Regular, Roboto" font-size="16" font-weight="normal" line-spacing="24" letter-spacing="0.150000006" fill="#FFFFFF">
            <tspan x="964" y="489">Carbon</tspan>
        </text>
        <text id="KPI-4" font-family="Roboto-Regular, Roboto" font-size="16" font-weight="normal" line-spacing="24" letter-spacing="0.150000006" fill="#FFFFFF">
            <tspan x="720" y="218">KPI 4</tspan>
        </text>
        <text id="KPI-4-Copy" font-family="Roboto-Regular, Roboto" font-size="16" font-weight="normal" line-spacing="24" letter-spacing="0.150000006" fill="#FFFFFF">
            <tspan x="910" y="218">KPI 4</tspan>
        </text>
        <text id="+2504.67" font-family="Arial-Black, Arial Black" font-size="22" font-weight="700" line-spacing="24" letter-spacing="0.206250008" fill="#FFFFFF">
            <tspan x="70" y="181.500977"> +</tspan>
            <tspan x="91.1097656" y="175" font-size="28" letter-spacing="0.26250001">2504.67</tspan>
        </text>
        <text id="+130.30" font-family="Arial-Black, Arial Black" font-size="22" font-weight="700" line-spacing="24" letter-spacing="0.206250008" fill="#FFFFFF">
            <tspan x="277" y="181.500977"> +</tspan>
            <tspan x="298.109766" y="175" font-size="28" letter-spacing="0.26250001">130.30</tspan>
        </text>
        <text id="-123.90" font-family="Arial-Black, Arial Black" font-size="28" font-weight="700" line-spacing="24" letter-spacing="0.26250001" fill="#FFFFFF">
            <tspan x="474" y="182"> -123.90</tspan>
        </text>
        <text id="+3000.0" font-family="Arial-Black, Arial Black" font-size="22" font-weight="700" line-spacing="24" letter-spacing="0.206250008" fill="#FFFFFF">
            <tspan x="671" y="181.500977"> +</tspan>
            <tspan x="692.109766" y="175" font-size="28" letter-spacing="0.26250001">3000.0</tspan>
        </text>
        <text id="-450.60" font-family="Arial-Black, Arial Black" font-size="28" font-weight="700" line-spacing="24" letter-spacing="0.26250001" fill="#FFFFFF">
            <tspan x="868" y="182"> -450.60</tspan>
        </text>
        <line x1="50.5" y1="227.5" x2="50.5" y2="508.5" id="Line" stroke="#979797" stroke-linecap="square"></line>
        <line x1="50.5" y1="508.5" x2="1027.5" y2="508.5" id="Line-2" stroke="#979797" stroke-linecap="square"></line>
        <path d="M50,508 C106.204803,445.686181 201.876678,393.801082 337.015625,352.344702 C456.119234,315.807459 636.123665,383.819548 871,346.777118 C892.081485,343.45235 923.748152,303.526644 966,227" id="Line-3" stroke="#50BC90" stroke-linecap="square"></path>
        <text id="AUG" transform="translate(950.500000, 531.000000) rotate(90.000000) translate(-950.500000, -531.000000) " font-family="Roboto-Regular, Roboto" font-size="13" font-weight="normal" fill="#FFFFFF">
            <tspan x="937.461914" y="536">AUG</tspan>
        </text>
        <text id="JUL" transform="translate(809.500000, 531.000000) rotate(90.000000) translate(-809.500000, -531.000000) " font-family="Roboto-Regular, Roboto" font-size="13" font-weight="normal" fill="#FFFFFF">
            <tspan x="798.004395" y="522">JUL</tspan>
        </text>
        <text id="JUN" transform="translate(682.500000, 531.000000) rotate(90.000000) translate(-682.500000, -531.000000) " font-family="Roboto-Regular, Roboto" font-size="13" font-weight="normal" fill="#FFFFFF">
            <tspan x="669.877686" y="522">JUN</tspan>
        </text>
        <text id="MAY" transform="translate(569.500000, 530.000000) rotate(90.000000) translate(-569.500000, -530.000000) " font-family="Roboto-Regular, Roboto" font-size="13" font-weight="normal" fill="#FFFFFF">
            <tspan x="555.557373" y="535">MAY</tspan>
        </text>
        <text id="APR" transform="translate(428.500000, 531.000000) rotate(90.000000) translate(-428.500000, -531.000000) " font-family="Roboto-Regular, Roboto" font-size="13" font-weight="normal" fill="#FFFFFF">
            <tspan x="415.820557" y="522">APR</tspan>
        </text>
        <text id="MAR" transform="translate(301.500000, 531.000000) rotate(90.000000) translate(-301.500000, -531.000000) " font-family="Roboto-Regular, Roboto" font-size="13" font-weight="normal" fill="#FFFFFF">
            <tspan x="287.217773" y="522">MAR</tspan>
        </text>
        <text id="FEB" transform="translate(159.500000, 531.000000) rotate(90.000000) translate(-159.500000, -531.000000) " font-family="Roboto-Regular, Roboto" font-size="13" font-weight="normal" fill="#FFFFFF">
            <tspan x="147.76001" y="508">FEB</tspan>
            <tspan x="159.5" y="536"></tspan>
        </text>
        <text id="JAN" transform="translate(46.500000, 531.000000) rotate(90.000000) translate(-46.500000, -531.000000) " font-family="Roboto-Regular, Roboto" font-size="13" font-weight="normal" fill="#FFFFFF">
            <tspan x="34.1379395" y="522">JAN</tspan>
        </text>
        <path d="M49,507.813977 C88.9650275,510.544163 156.087805,483.221947 250.368333,425.84733 C280.185479,407.702042 332.131959,439.737861 353.166941,446.44849 C441.808735,474.727197 644.086421,401.5777 960,227" id="Line-3" stroke="#8B2F91" stroke-linecap="square"></path>
        <path d="M53,508 C124.684882,478.513489 187.767835,450.961861 242.248858,425.345115 C273.76158,410.527966 302.544465,345.642328 340.173935,332.645012 C347.341314,330.16938 455.299147,374.611569 467.228351,376.226465 C534.415919,385.321871 566.876047,403.261945 622.896197,389.241811 C704.012097,368.940978 816.380031,314.860374 960,227" id="Line-3" stroke="#BBBB29" stroke-linecap="square"></path>
        <path d="M191.5,823 C238.168061,823 276,785.168061 276,738.5 C276,691.831939 238.168061,654 191.5,654 C144.831939,654 107,691.831939 107,738.5 C107,785.168061 144.831939,823 191.5,823 Z" id="Oval" stroke="#50BC90" stroke-width="18" stroke-dasharray="300,9999"></path>
        <path d="M192,802 C226.793939,802 255,773.793939 255,739 C255,704.206061 226.793939,676 192,676 C157.206061,676 129,704.206061 129,739 C129,773.793939 157.206061,802 192,802 Z" id="Oval-Copy-2" stroke="#FFFFFF" stroke-width="18" stroke-dasharray="300,9999"></path>
        <path d="M882,802 C916.793939,802 945,773.793939 945,739 C945,704.206061 916.793939,676 882,676 C847.206061,676 819,704.206061 819,739 C819,773.793939 847.206061,802 882,802 Z" id="Oval-Copy-4" stroke="#FFFFFF" stroke-width="18" stroke-dasharray="300,9999"></path>
        <path d="M541,802 C575.793939,802 604,773.793939 604,739 C604,704.206061 575.793939,676 541,676 C506.206061,676 478,704.206061 478,739 C478,773.793939 506.206061,802 541,802 Z" id="Oval-Copy-3" stroke="#FFFFFF" stroke-width="18" stroke-dasharray="300,9999"></path>
        <path d="M881.5,823 C928.168061,823 966,785.168061 966,738.5 C966,691.831939 928.168061,654 881.5,654 C834.831939,654 797,691.831939 797,738.5 C797,785.168061 834.831939,823 881.5,823 Z" id="Oval" stroke="#8B2F91" stroke-width="18" stroke-dasharray="417,9999"></path>
        <path d="M881.5,823 C928.168061,823 966,785.168061 966,738.5 C966,691.831939 928.168061,654 881.5,654 C834.831939,654 797,691.831939 797,738.5 C797,785.168061 834.831939,823 881.5,823 Z" id="Oval-Copy" stroke="#8B2F91" stroke-width="18" stroke-dasharray="440,9999"></path>
        <g id="help-black-18dp" transform="translate(107.000000, 853.000000)" fill="#FFFFFF" font-family="Arial-Black, Arial Black" font-size="20" font-weight="700">
            <text id="+200-Thousand-Tonnes">
                <tspan x="0" y="22">+200 Thousand </tspan>
                <tspan x="0" y="50">Tonnes  </tspan>
            </text>
        </g>
        <path d="M1058,12 C1049.72,12 1043,18.72 1043,27 C1043,35.28 1049.72,42 1058,42 C1066.28,42 1073,35.28 1073,27 C1073,18.72 1066.28,12 1058,12 Z M1060,37 L1057,37 L1057,34 L1060,34 L1060,37 Z M1062.605,25.375 L1061.255,26.755 C1060.175,27.85 1059.5,28.75 1059.5,31 L1056.5,31 L1056.5,30.25 C1056.5,28.6 1057.175,27.1 1058.255,26.005 L1060.115,24.115 C1060.67,23.575 1061,22.825 1061,22 C1061,20.35 1059.65,19 1058,19 C1056.35,19 1055,20.35 1055,22 L1052,22 C1052,18.685 1054.685,16 1058,16 C1061.315,16 1064,18.685 1064,22 C1064,23.32 1063.46,24.52 1062.605,25.375 Z" id="Shape" fill="#798584" fill-rule="nonzero"></path>
        <g id="help-black-18dp" transform="translate(496.000000, 844.000000)" fill="#FFFFFF" font-family="Arial-Black, Arial Black" font-size="20" font-weight="700">
            <text id="+145-Tonnes">
                <tspan x="0" y="22">+145 </tspan>
                <tspan x="0" y="50">Tonnes  </tspan>
            </text>
        </g>
        <g id="help-black-18dp" transform="translate(776.000000, 844.000000)" fill="#FFFFFF" font-family="Arial-Black, Arial Black" font-size="20" font-weight="700">
            <text id="+200-Thousand-Tonnes">
                <tspan x="0" y="22">+200 Thousand </tspan>
                <tspan x="0" y="50">Tonnes  </tspan>
            </text>
        </g>
        <g id="Rectangle">
            <use fill="black" fill-opacity="1" filter="url(#filter-18)" xlink:href="#path-17"></use>
            <use stroke="#80CBC4" stroke-width="1" xlink:href="#path-17"></use>
        </g>
        <g id="Rectangle-Copy-4">
            <use fill="black" fill-opacity="1" filter="url(#filter-20)" xlink:href="#path-19"></use>
            <use stroke="#80CBC4" stroke-width="1" xlink:href="#path-19"></use>
        </g>
        <g id="Rectangle-Copy">
            <use fill="black" fill-opacity="1" filter="url(#filter-22)" xlink:href="#path-21"></use>
            <use stroke="#80CBC4" stroke-width="1" xlink:href="#path-21"></use>
        </g>
        <g id="Rectangle-Copy-2">
            <use fill="black" fill-opacity="1" filter="url(#filter-24)" xlink:href="#path-23"></use>
            <use stroke="#80CBC4" stroke-width="1" xlink:href="#path-23"></use>
        </g>
        <g id="Rectangle-Copy-3">
            <use fill="black" fill-opacity="1" filter="url(#filter-26)" xlink:href="#path-25"></use>
            <use stroke="#80CBC4" stroke-width="1" xlink:href="#path-25"></use>
        </g>
        <circle id="Oval" stroke="#979797" fill="#8B2F91" cx="949" cy="441" r="7"></circle>
        <circle id="Oval-Copy-5" stroke="#979797" fill="#50BC90" cx="949" cy="485" r="7"></circle>
        <circle id="Oval-Copy-6" stroke="#979797" fill="#BBBB29" cx="949" cy="463" r="7"></circle>
        <path id="Line-4-Copy-2" d="M316.133751,198.45104 L316.300398,200.22099 L317.591012,213.928536 L315.599818,214.116014 L314.666,204.208 L311.35702,211.647662 C304.494444,225.147978 298.249621,226.83275 294.132701,215.694561 C292.050736,210.061876 290.190643,207.929254 288.823571,208.588343 C287.063308,209.436995 285.053462,213.770134 283.087578,221.430237 L282.96968,221.893835 L281.03032,221.405081 C283.189194,212.838736 285.393587,208.021693 287.955011,206.786787 C290.944832,205.345344 293.538996,208.319587 296.008655,215.001167 C299.315002,223.946377 303.286543,222.973279 309.366984,211.149729 L309.551887,210.788117 L312.84,203.394 L304.857651,209.338007 L303.66343,207.73369 L314.707691,199.51257 L316.133751,198.45104 Z" fill="#BF4040" fill-rule="nonzero"></path>
        <path id="Line-4-Copy-6" d="M714.133751,198.45104 L714.300398,200.22099 L715.591012,213.928536 L713.599818,214.116014 L712.666,204.208 L709.35702,211.647662 C702.494444,225.147978 696.249621,226.83275 692.132701,215.694561 C690.050736,210.061876 688.190643,207.929254 686.823571,208.588343 C685.063308,209.436995 683.053462,213.770134 681.087578,221.430237 L680.96968,221.893835 L679.03032,221.405081 C681.189194,212.838736 683.393587,208.021693 685.955011,206.786787 C688.944832,205.345344 691.538996,208.319587 694.008655,215.001167 C697.315002,223.946377 701.286543,222.973279 707.366984,211.149729 L707.551887,210.788117 L710.84,203.394 L702.857651,209.338007 L701.66343,207.73369 L712.707691,199.51257 L714.133751,198.45104 Z" fill="#BF4040" fill-rule="nonzero"></path>
        <path id="Line-4-Copy-3" d="M117.133751,198.45104 L117.300398,200.22099 L118.591012,213.928536 L116.599818,214.116014 L115.666,204.208 L112.35702,211.647662 C105.494444,225.147978 99.2496205,226.83275 95.1327005,215.694561 C93.0507364,210.061876 91.1906427,207.929254 89.8235712,208.588343 C88.0633082,209.436995 86.0534616,213.770134 84.0875782,221.430237 L83.9696803,221.893835 L82.0303197,221.405081 C84.1891942,212.838736 86.3935866,208.021693 88.9550109,206.786787 C91.9448319,205.345344 94.538996,208.319587 97.0086548,215.001167 C100.315002,223.946377 104.286543,222.973279 110.366984,211.149729 L110.551887,210.788117 L113.84,203.394 L105.857651,209.338007 L104.66343,207.73369 L115.707691,199.51257 L117.133751,198.45104 Z" fill="#BF4040" fill-rule="nonzero"></path>
        <path id="Line-4-Copy-4" d="M515.118941,199.444505 L515.295856,201.213458 L516.665988,214.913284 L514.675916,215.112313 L513.685,205.211 L510.422755,212.660628 C502.751562,228.258394 495.8803,230.44516 491.320499,218.059817 C489.03159,211.842677 486.968659,209.468114 485.405813,210.224579 C483.448884,211.171791 481.245828,215.943055 479.091782,224.37817 L478.969909,224.859541 L477.030091,224.372604 C479.377935,215.019468 481.775337,209.75987 484.534459,208.424373 C487.724586,206.880255 490.520845,210.098926 493.197343,217.368836 C496.91325,227.461991 501.497807,226.115722 508.399518,212.242445 L508.609371,211.818207 L511.853,204.409 L503.906205,210.39672 L502.702694,208.799359 L513.699065,200.514291 L515.118941,199.444505 Z" fill="#40BF5B" fill-rule="nonzero"></path>
        <path id="Line-4-Copy-5" d="M904.118941,199.444505 L904.295856,201.213458 L905.665988,214.913284 L903.675916,215.112313 L902.685,205.211 L899.422755,212.660628 C891.751562,228.258394 884.8803,230.44516 880.320499,218.059817 C878.03159,211.842677 875.968659,209.468114 874.405813,210.224579 C872.448884,211.171791 870.245828,215.943055 868.091782,224.37817 L867.969909,224.859541 L866.030091,224.372604 C868.377935,215.019468 870.775337,209.75987 873.534459,208.424373 C876.724586,206.880255 879.520845,210.098926 882.197343,217.368836 C885.91325,227.461991 890.497807,226.115722 897.399518,212.242445 L897.609371,211.818207 L900.853,204.409 L892.906205,210.39672 L891.702694,208.799359 L902.699065,200.514291 L904.118941,199.444505 Z" fill="#40BF5B" fill-rule="nonzero"></path>
    </g>
</svg>