<?xml version="1.0" encoding="UTF-8"?>
<svg width="187px" height="201px" viewBox="0 0 187 201" version="1.1" xmlns="http://www.w3.org/2000/svg" xmlns:xlink="http://www.w3.org/1999/xlink">
    <!-- Generator: Sketch 63.1 (92452) - https://sketch.com -->
    <title>ecology</title>
    <desc>Created with Sketch.</desc>
    <g id="Registration" stroke="none" stroke-width="1" fill="none" fill-rule="evenodd">
        <g id="Desktop-HD" transform="translate(-502.000000, -587.000000)" fill-rule="nonzero">
            <g id="ecology" transform="translate(502.000000, 587.000000)">
                <path d="M183.5,125 L180,125 L180,121.5 C180,119.5645 178.4355,118 176.5,118 C174.5645,118 173,119.5645 173,121.5 L173,125 L169.5,125 C167.5645,125 166,126.5645 166,128.5 C166,130.4355 167.5645,132 169.5,132 L173,132 L173,135.5 C173,137.4355 174.5645,139 176.5,139 C178.4355,139 180,137.4355 180,135.5 L180,132 L183.5,132 C185.4355,132 187,130.4355 187,128.5 C187,126.5645 185.4355,125 183.5,125 Z" id="Path" fill="#322153"></path>
                <g id="Group" transform="translate(113.000000, 44.000000)" fill="#00F2A9">
                    <path d="M28.3655474,56.3333333 C35.5340146,56.3333333 42.7059854,53.6293333 48.1611679,48.2213333 C59.0715328,37.3706667 56.3456934,0.866666667 56.3456934,0.866666667 C56.3456934,0.866666667 42.4957664,-1.248 28.3655474,1.21333333 C20.2160584,2.66933333 12.5570803,5.02666667 8.56992701,8.97866667 C-2.34043796,19.8293333 -2.34043796,37.3706667 8.56992701,48.2213333 C14.0286131,53.6293333 21.1970803,56.3333333 28.3655474,56.3333333 Z" id="Path"></path>
                    <path d="M49.4890511,122.2 C43.6940146,122.2 38.9781022,126.866133 38.9781022,132.6 C38.9781022,138.333867 43.6940146,143 49.4890511,143 C55.2840876,143 60,138.333867 60,132.6 C60,126.866133 55.2840876,122.2 49.4890511,122.2 Z M49.4890511,136.066667 C47.5550365,136.066667 45.9854015,134.5136 45.9854015,132.6 C45.9854015,130.6864 47.5550365,129.133333 49.4890511,129.133333 C51.4230657,129.133333 52.9927007,130.6864 52.9927007,132.6 C52.9927007,134.5136 51.4230657,136.066667 49.4890511,136.066667 Z" id="Shape"></path>
                </g>
                <g id="Group" fill="#322153">
                    <path d="M134.8535,0 L10.5184,0 C4.80248,0 0,4.66458621 0,10.3965517 L0,190.603448 C0,196.335414 4.80248,201 10.5184,201 L58.8719,201 L86.5,201 L134.8535,201 C140.56942,201 145.32,196.335414 145.32,190.603448 L145.32,89.8989828 C152.24,89.1261724 158.03204,85.9864138 162.97984,81.512431 C162.97984,81.5089655 174.58468,69.8163103 172.26994,30.9366724 C172.17306,29.3252069 171.27346,28.0117759 169.68186,27.7657241 C169.1594,27.6825517 159.16,25.9844483 145.32,27.5335345 L145.32,10.3965517 C145.32,4.66458621 140.56942,0 134.8535,0 Z M62.28,194.068966 L62.28,173.275862 L69.2,173.275862 L69.2,194.068966 L62.28,194.068966 Z M76.12,194.068966 L76.12,173.275862 L83.04,173.275862 L83.04,194.068966 L76.12,194.068966 Z M134.8535,194.068966 L89.96,194.068966 L89.96,169.810345 C89.96,167.893914 88.41338,166.344828 86.5,166.344828 L58.8719,166.344828 C56.95852,166.344828 55.36,167.893914 55.36,169.810345 L55.36,194.068966 L10.5184,194.068966 C8.6154,194.068966 6.92,192.516414 6.92,190.603448 L6.92,10.3965517 C6.92,8.48358621 8.6154,6.93103448 10.5184,6.93103448 L134.8535,6.93103448 C136.75304,6.93103448 138.4,8.48358621 138.4,10.3965517 L138.4,28.6944828 C128.02,30.5693276 123.41128,33.2412414 119.80596,36.8557759 C108.54712,48.1880172 107.76516,66.1393966 117.49122,78.383069 L109.99686,85.8928448 C108.64746,87.2478621 108.644,89.438069 109.99686,90.7930862 C110.6681,91.4653966 111.5504,91.8050172 112.43616,91.8050172 C113.32192,91.8050172 114.20768,91.4653966 114.88584,90.7861552 L122.40442,83.2902414 C126.9993,86.9775517 131.48,89.2543966 138.4,89.8989828 L138.4,190.603448 C138.4,192.516414 136.75304,194.068966 134.8535,194.068966 Z M166.10768,34.2912931 C166.61976,45.6235345 166.10422,68.7801207 158.85898,76.0819655 C154.30216,80.6529828 148.22986,83.1724138 141.76312,83.1724138 C136.46586,83.1724138 131.4454,81.4569828 127.2934,78.3345517 L132.83286,72.7758621 L152.12236,72.7758621 C154.03574,72.7758621 155.58236,71.2267759 155.58236,69.3103448 C155.58236,67.3939138 154.03574,65.8448276 152.12236,65.8448276 L139.74248,65.8448276 L153.9873,51.5530345 C155.3367,50.1980172 155.3367,48.0078103 153.98038,46.6527931 C152.62752,45.3047069 150.47886,45.2977759 149.12946,46.6597241 L134.94,60.9341897 L134.94,48.5172414 C134.94,46.6008103 133.39338,45.0517241 131.48,45.0517241 C129.56662,45.0517241 128.02,46.6008103 128.02,48.5172414 L128.02,67.8756207 L122.45286,73.4204483 C115.39792,63.918 116.11068,50.3712931 124.6811,41.7421552 C126.67406,39.7425517 131.3589,36.9354828 142.37208,34.9428103 C147.25414,34.0833621 152.12928,33.8130517 156.35048,33.8130517 C160.41944,33.8165172 163.86214,34.0660345 166.10768,34.2912931 Z" id="Shape"></path>
                    <path d="M45.05266,27.7241379 L31.24034,27.7241379 C29.32696,27.7241379 27.78034,29.2732241 27.78034,31.1896552 C27.78034,33.1060862 29.32696,34.6551724 31.24034,34.6551724 L45.05266,34.6551724 C46.96604,34.6551724 48.51266,33.1060862 48.51266,31.1896552 C48.51266,29.2732241 46.96604,27.7241379 45.05266,27.7241379 Z" id="Path"></path>
                    <path d="M45.05266,55.4482759 L31.24034,55.4482759 C29.32696,55.4482759 27.78034,56.9973621 27.78034,58.9137931 C27.78034,60.8302241 29.32696,62.3793103 31.24034,62.3793103 L45.05266,62.3793103 C46.96604,62.3793103 48.51266,60.8302241 48.51266,58.9137931 C48.51266,56.9973621 46.96604,55.4482759 45.05266,55.4482759 Z" id="Path"></path>
                    <path d="M45.05266,83.1724138 L31.24034,83.1724138 C29.32696,83.1724138 27.78034,84.7215 27.78034,86.637931 C27.78034,88.5543621 29.32696,90.1034483 31.24034,90.1034483 L45.05266,90.1034483 C46.96604,90.1034483 48.51266,88.5543621 48.51266,86.637931 C48.51266,84.7215 46.96604,83.1724138 45.05266,83.1724138 Z" id="Path"></path>
                    <path d="M45.05266,110.896552 L31.24034,110.896552 C29.32696,110.896552 27.78034,112.445638 27.78034,114.362069 C27.78034,116.2785 29.32696,117.827586 31.24034,117.827586 L45.05266,117.827586 C46.96604,117.827586 48.51266,116.2785 48.51266,114.362069 C48.51266,112.445638 46.96604,110.896552 45.05266,110.896552 Z" id="Path"></path>
                    <path d="M45.05266,138.62069 L31.24034,138.62069 C29.32696,138.62069 27.78034,140.169776 27.78034,142.086207 C27.78034,144.002638 29.32696,145.551724 31.24034,145.551724 L45.05266,145.551724 C46.96604,145.551724 48.51266,144.002638 48.51266,142.086207 C48.51266,140.169776 46.96604,138.62069 45.05266,138.62069 Z" id="Path"></path>
                    <path d="M86.5,27.7241379 L58.8719,27.7241379 C56.95852,27.7241379 55.4119,29.2732241 55.4119,31.1896552 C55.4119,33.1060862 56.95852,34.6551724 58.8719,34.6551724 L86.5,34.6551724 C88.41338,34.6551724 89.96,33.1060862 89.96,31.1896552 C89.96,29.2732241 88.41338,27.7241379 86.5,27.7241379 Z" id="Path"></path>
                    <path d="M86.5,55.4482759 L58.8719,55.4482759 C56.95852,55.4482759 55.4119,56.9973621 55.4119,58.9137931 C55.4119,60.8302241 56.95852,62.3793103 58.8719,62.3793103 L86.5,62.3793103 C88.41338,62.3793103 89.96,60.8302241 89.96,58.9137931 C89.96,56.9973621 88.41338,55.4482759 86.5,55.4482759 Z" id="Path"></path>
                    <path d="M86.5,83.1724138 L58.8719,83.1724138 C56.95852,83.1724138 55.4119,84.7215 55.4119,86.637931 C55.4119,88.5543621 56.95852,90.1034483 58.8719,90.1034483 L86.5,90.1034483 C88.41338,90.1034483 89.96,88.5543621 89.96,86.637931 C89.96,84.7215 88.41338,83.1724138 86.5,83.1724138 Z" id="Path"></path>
                    <path d="M86.5,110.896552 L58.8719,110.896552 C56.95852,110.896552 55.4119,112.445638 55.4119,114.362069 C55.4119,116.2785 56.95852,117.827586 58.8719,117.827586 L86.5,117.827586 C88.41338,117.827586 89.96,116.2785 89.96,114.362069 C89.96,112.445638 88.41338,110.896552 86.5,110.896552 Z" id="Path"></path>
                    <path d="M86.5,138.62069 L58.8719,138.62069 C56.95852,138.62069 55.4119,140.169776 55.4119,142.086207 C55.4119,144.002638 56.95852,145.551724 58.8719,145.551724 L86.5,145.551724 C88.41338,145.551724 89.96,144.002638 89.96,142.086207 C89.96,140.169776 88.41338,138.62069 86.5,138.62069 Z" id="Path"></path>
                    <path d="M100.31578,34.6551724 L114.1281,34.6551724 C116.04148,34.6551724 117.5881,33.1060862 117.5881,31.1896552 C117.5881,29.2732241 116.04148,27.7241379 114.1281,27.7241379 L100.31578,27.7241379 C98.4024,27.7241379 96.85578,29.2732241 96.85578,31.1896552 C96.85578,33.1060862 98.4024,34.6551724 100.31578,34.6551724 Z" id="Path"></path>
                    <path d="M114.1281,110.896552 L100.31578,110.896552 C98.4024,110.896552 96.85578,112.445638 96.85578,114.362069 C96.85578,116.2785 98.4024,117.827586 100.31578,117.827586 L114.1281,117.827586 C116.04148,117.827586 117.5881,116.2785 117.5881,114.362069 C117.5881,112.445638 116.04148,110.896552 114.1281,110.896552 Z" id="Path"></path>
                    <path d="M114.1281,138.62069 L100.31578,138.62069 C98.4024,138.62069 96.85578,140.169776 96.85578,142.086207 C96.85578,144.002638 98.4024,145.551724 100.31578,145.551724 L114.1281,145.551724 C116.04148,145.551724 117.5881,144.002638 117.5881,142.086207 C117.5881,140.169776 116.04148,138.62069 114.1281,138.62069 Z" id="Path"></path>
                </g>
            </g>
        </g>
    </g>
</svg>