<?xml version="1.0" encoding="UTF-8"?>
<svg width="149px" height="178px" viewBox="0 0 149 178" version="1.1" xmlns="http://www.w3.org/2000/svg" xmlns:xlink="http://www.w3.org/1999/xlink">
    <!-- Generator: Sketch 63.1 (92452) - https://sketch.com -->
    <title>furniture-and-household</title>
    <desc>Created with Sketch.</desc>
    <defs>
        <linearGradient x1="50%" y1="0%" x2="50%" y2="100%" id="linearGradient-1">
            <stop stop-color="#194941" offset="0%"></stop>
            <stop stop-color="#000000" offset="100%"></stop>
        </linearGradient>
    </defs>
    <g id="Home/Sign-In" stroke="none" stroke-width="1" fill="none" fill-rule="evenodd">
        <g id="Desktop-HD" transform="translate(-673.000000, -631.000000)" fill-rule="nonzero">
            <g id="furniture-and-household" transform="translate(673.000000, 631.000000)">
                <path d="M135.19601,67.1174839 C135.304894,67.1289677 135.41163,67.1339919 135.514784,67.1339919 C136.956072,67.1339919 138.198216,66.0487661 138.360827,64.5795484 L140.141663,48.479879 C145.206947,47.2927339 149,42.7551694 149,37.3225806 L149,34.4516129 C149,28.1182581 143.8595,22.9677419 137.538462,22.9677419 L108.884615,22.9677419 L108.884615,8.61290323 C108.884615,3.86360484 105.028524,0 100.288462,0 L48.7115385,0 C43.971476,0 40.1153846,3.86360484 40.1153846,8.61290323 L40.1153846,22.9677419 L11.4615385,22.9677419 C5.1405,22.9677419 0,28.1182581 0,34.4516129 L0,37.3225806 C0,42.7558871 3.79305288,47.2934516 8.85905288,48.4805968 L21.6358029,164.057145 C22.0527163,171.876944 29.4260673,178 38.425524,178 L143.269231,178 C144.853072,178 146.134615,176.71596 146.134615,175.129032 C146.134615,173.542105 144.853072,172.258065 143.269231,172.258065 L123.951524,172.258065 C125.942966,170.000048 127.191558,167.233871 127.350587,164.222944 L136.646611,80.0928226 C136.819966,78.517379 135.686707,77.0955323 134.114327,76.9218387 C132.499683,76.7589113 131.122865,77.8893548 130.94951,79.4590565 L121.639875,163.754258 C121.387721,168.523653 116.527313,172.258065 110.575909,172.258065 L106.019231,172.258065 L106.019231,166.516129 C106.019231,161.766831 102.163139,157.903226 97.4230769,157.903226 C92.6830144,157.903226 88.8269231,161.766831 88.8269231,166.516129 L88.8269231,172.258065 L83.0961538,172.258065 L83.0961538,166.516129 C83.0961538,161.766831 79.2400625,157.903226 74.5,157.903226 C69.7599375,157.903226 65.9038462,161.766831 65.9038462,166.516129 L65.9038462,172.258065 L60.1730769,172.258065 L60.1730769,166.516129 C60.1730769,161.766831 56.3169856,157.903226 51.5769231,157.903226 C46.8368606,157.903226 42.9807692,161.766831 42.9807692,166.516129 L42.9807692,172.258065 L38.425524,172.258065 C32.4734038,172.258065 27.6129952,168.523653 27.3472308,163.589177 L14.6628894,48.8064516 L134.338543,48.8064516 L132.663726,63.9465 C132.49037,65.5219435 133.62363,66.9409194 135.19601,67.1174839 Z M94.5576923,166.516129 C94.5576923,164.932073 95.842101,163.645161 97.4230769,163.645161 C99.0040529,163.645161 100.288462,164.932073 100.288462,166.516129 L100.288462,172.258065 L94.5576923,172.258065 L94.5576923,166.516129 Z M71.6346154,166.516129 C71.6346154,164.932073 72.919024,163.645161 74.5,163.645161 C76.080976,163.645161 77.3653846,164.932073 77.3653846,166.516129 L77.3653846,172.258065 L71.6346154,172.258065 L71.6346154,166.516129 Z M48.7115385,166.516129 C48.7115385,164.932073 49.9959471,163.645161 51.5769231,163.645161 C53.157899,163.645161 54.4423077,164.932073 54.4423077,166.516129 L54.4423077,172.258065 L48.7115385,172.258065 L48.7115385,166.516129 Z M45.8461538,8.61290323 C45.8461538,7.02884677 47.1305625,5.74193548 48.7115385,5.74193548 L100.288462,5.74193548 C101.869438,5.74193548 103.153846,7.02884677 103.153846,8.61290323 L103.153846,28.7096774 C103.153846,30.2937339 101.869438,31.5806452 100.288462,31.5806452 C98.7074856,31.5806452 97.4230769,30.2937339 97.4230769,28.7096774 L97.4230769,14.3548387 C97.4230769,12.7679113 96.1415337,11.483871 94.5576923,11.483871 L54.4423077,11.483871 C52.8584663,11.483871 51.5769231,12.7679113 51.5769231,14.3548387 L51.5769231,28.7096774 C51.5769231,30.2937339 50.2925144,31.5806452 48.7115385,31.5806452 C47.1305625,31.5806452 45.8461538,30.2937339 45.8461538,28.7096774 L45.8461538,8.61290323 Z M91.6923077,22.9677419 L57.3076923,22.9677419 L57.3076923,17.2258065 L91.6923077,17.2258065 L91.6923077,22.9677419 Z M5.73076923,37.3225806 L5.73076923,34.4516129 C5.73076923,31.286371 8.30245192,28.7096774 11.4615385,28.7096774 L40.1153846,28.7096774 C40.1153846,33.4589758 43.971476,37.3225806 48.7115385,37.3225806 C53.451601,37.3225806 57.3076923,33.4589758 57.3076923,28.7096774 L91.6923077,28.7096774 C91.6923077,33.4589758 95.548399,37.3225806 100.288462,37.3225806 C105.028524,37.3225806 108.884615,33.4589758 108.884615,28.7096774 L137.538462,28.7096774 C140.697548,28.7096774 143.269231,31.286371 143.269231,34.4516129 L143.269231,37.3225806 C143.269231,40.4878226 140.697548,43.0645161 137.538462,43.0645161 L11.4615385,43.0645161 C8.30245192,43.0645161 5.73076923,40.4878226 5.73076923,37.3225806 Z" id="Shape" fill="url(#linearGradient-1)"></path>
                <path d="M123.981027,109.62239 C124.114604,108.468008 123.534112,107.347098 122.515943,106.790203 L105.18078,97.3457829 C103.840037,96.6172621 102.166772,97.0758813 101.386626,98.383373 L91.2425926,115.343734 C90.6457593,116.342156 90.7125478,117.602647 91.4145374,118.529143 C92.1165269,119.458488 93.3158775,119.855862 94.4257031,119.558187 L97.8226789,118.628843 L99.9336212,126.060039 L80.842063,126.060039 C79.2711127,126.060039 78,127.33406 78,128.908605 L78,143.151434 C78,143.907728 78.2998376,144.634113 78.8327245,145.168219 C79.3656113,145.699476 80.0903373,146 80.842063,146 L80.8477471,146 L107.299538,145.959408 C107.311617,145.961544 107.321564,145.967954 107.333643,145.969378 C107.472193,145.991454 107.608612,146 107.744321,146 C108.098158,146 108.435653,145.913831 108.758227,145.789206 C109.637135,145.513607 110.311414,144.847755 110.593489,143.970397 L121.221384,127.23436 C121.64343,126.56922 121.770612,125.760227 121.576642,124.997524 L118.498687,112.974439 L121.907031,112.042246 C123.026094,111.736738 123.84816,110.776771 123.981027,109.62239 L123.981027,109.62239 Z M83.684126,131.757171 L101.551466,131.757171 L103.969351,140.267261 L83.684126,140.297171 L83.684126,131.757171 Z M108.744017,136.272148 L102.518478,114.359555 C102.16322,113.110459 101.024973,112.29292 99.787255,112.29292 C99.7538607,112.29292 99.7233086,112.29292 99.6927564,112.29292 L104.860337,103.658205 L113.686364,108.46516 C112.573696,109.076889 111.968337,110.38723 112.298727,111.672645 L115.765333,125.217576 L108.744017,136.272148 Z" id="Shape" fill="#000000"></path>
                <path d="M87.8178845,93.717302 C88.3105769,94.2957316 89.0123772,94.6532282 89.7707511,94.7147177 C89.845944,94.7204376 89.921853,94.7232976 89.9970459,94.7232976 C90.6766463,94.7232976 91.334047,94.4830598 91.8546682,94.039049 L103.992232,83.7052507 C104.571575,83.2133353 104.931785,82.5097819 104.991223,81.753319 C105.050661,80.996856 104.806464,80.248258 104.311623,79.6698285 L86.9857499,59.4541076 C86.9771564,59.4390928 86.9742919,59.4219329 86.9649823,59.4076331 C86.6835461,58.9621922 86.2825174,58.6218554 85.8299278,58.3909126 C85.0608121,57.9390368 84.1427427,57.8775474 83.315621,58.2135943 L63.5484859,60.9827633 C62.7621831,61.0914423 62.0603829,61.5218683 61.6042127,62.1667923 L54.4179213,72.3554469 L51.4782376,70.3527507 C50.5129042,69.6935268 49.2460831,69.6906668 48.2700079,70.3384508 C47.2996616,70.9890947 46.8212916,72.1623987 47.0611927,73.307103 L51.1703048,92.7320412 C51.4553217,94.0726537 52.6390725,95 53.9703446,95 C54.1271755,95 54.2861547,94.9885601 54.4458501,94.9606754 L74.0583028,91.6817161 C75.2105442,91.4886679 76.131478,90.614946 76.3828371,89.4752467 C76.6349123,88.3326874 76.1644196,87.1572384 75.1998024,86.4980146 L72.267996,84.5010383 L75.6344888,79.4503255 L87.8178845,93.717302 Z M90.318585,87.8293321 L78.9322339,74.4997118 L84.797995,65.6988592 L98.092097,81.209924 L90.318585,87.8293321 Z M66.1945593,87.195848 L56.2082281,88.8660724 L54.1157175,78.976285 C55.3159392,79.4317357 56.7087979,79.0377744 57.4750492,77.9509845 L65.5736809,66.471767 L78.6207205,64.6449591 L65.9288778,83.6873759 C65.1869746,84.8020504 65.3301992,86.2484819 66.1945593,87.195848 L66.1945593,87.195848 Z" id="Shape" fill="#000000"></path>
                <path d="M26.7785899,127.233375 L37.4063163,143.969655 C37.6883866,144.847026 38.3633659,145.512888 39.2415494,145.788491 C39.5641185,145.913117 39.9016081,145.999288 40.2554394,145.999288 C40.3911457,145.999288 40.5275626,145.990742 40.666111,145.968665 C40.6781895,145.967241 40.6881366,145.960832 40.7002152,145.958695 L67.1522979,146 L67.157982,146 C67.9104062,146 68.6344103,145.699472 69.1672887,145.168207 C69.7001671,144.634093 70,143.907698 70,143.151393 L70,128.908356 C70,127.333789 68.7289074,126.059749 67.157982,126.059749 L48.0667259,126.059749 L50.1776348,118.629157 L53.5745568,119.558515 C54.6843649,119.856195 55.8865385,119.458102 56.5856749,118.529456 C57.2876534,117.602946 57.3544408,116.34315 56.757617,115.344001 L46.6109022,98.3833931 C45.8307682,97.0758824 44.1546881,96.6172566 42.8168081,97.3457879 L25.4840507,106.790345 C24.4651872,107.346536 23.8854156,108.467463 24.0189904,109.622573 C24.1525652,110.777683 24.9739085,111.736952 26.0922425,112.042465 L29.5005327,112.974672 L26.4226271,124.997931 C26.2286594,125.759221 26.3565502,126.568938 26.7785899,127.233375 L26.7785899,127.233375 Z M64.315964,131.756964 L64.315964,140.297088 L44.0310603,140.267178 L46.4489071,131.756964 L64.315964,131.756964 Z M34.3106482,108.464614 L43.1393772,103.657589 L48.3047449,112.29243 C46.9917326,112.286733 45.8456888,113.079358 45.4819105,114.359095 L39.25647,136.272006 L32.234554,125.217274 L35.7011055,111.672146 C36.0314901,110.386712 35.4268507,109.076353 34.3106482,108.464614 L34.3106482,108.464614 Z" id="Shape" fill="#000000"></path>
            </g>
        </g>
    </g>
</svg>