<?xml version="1.0" encoding="UTF-8"?>
<svg width="36px" height="43px" viewBox="0 0 36 43" version="1.1" xmlns="http://www.w3.org/2000/svg" xmlns:xlink="http://www.w3.org/1999/xlink">
    <!-- Generator: Sketch 63.1 (92452) - https://sketch.com -->
    <title>Waste Icon</title>
    <desc>Created with Sketch.</desc>
    <defs>
        <rect id="path-1" x="0" y="0" width="344" height="1"></rect>
        <rect id="path-3" x="0" y="0" width="360" height="64" rx="1"></rect>
        <linearGradient x1="50%" y1="33.5488809%" x2="50%" y2="100%" id="linearGradient-5">
            <stop stop-color="#78C1B7" offset="0%"></stop>
            <stop stop-color="#000000" offset="100%"></stop>
        </linearGradient>
        <radialGradient cx="50%" cy="0%" fx="50%" fy="0%" r="109.090909%" gradientTransform="translate(0.500000,0.000000),scale(1.000000,0.916667),rotate(90.000000),translate(-0.500000,-0.000000)" id="radialGradient-6">
            <stop stop-color="#EFFAFB" offset="0%"></stop>
            <stop stop-color="#B6DFE1" offset="100%"></stop>
        </radialGradient>
        <radialGradient cx="50%" cy="0%" fx="50%" fy="0%" r="100%" gradientTransform="translate(0.500000,0.000000),scale(0.642857,1.000000),rotate(90.000000),translate(-0.500000,-0.000000)" id="radialGradient-7">
            <stop stop-color="#EFFAFB" offset="0%"></stop>
            <stop stop-color="#B6DFE1" offset="100%"></stop>
        </radialGradient>
    </defs>
    <g id="Action-Plan" stroke="none" stroke-width="1" fill="none" fill-rule="evenodd">
        <g id="Desktop-HD" transform="translate(-866.000000, -346.000000)">
            <g id="List-/-Two-Line-/-Overline" transform="translate(542.000000, 336.000000)">
                <g id="Divider-/-Dark" transform="translate(16.000000, 63.000000)">
                    <mask id="mask-2" fill="white">
                        <use xlink:href="#path-1"></use>
                    </mask>
                    <g id="Surface"></g>
                    <g id="✱-/-Color-/-Icons-/-Selected-/-On-Surface-/-Active" opacity="0.12" mask="url(#mask-2)" fill="#000000" fill-opacity="0.87" fill-rule="evenodd">
                        <rect id="Rectangle-3" x="0" y="0" width="344" height="1"></rect>
                    </g>
                </g>
                <g id="✱-/-Text-/-Subtitle-1-/-Selected-/-On-Surface-/-High-Emphasis-/-Left" transform="translate(16.000000, 30.000000)" fill="#A9AFAD" font-family="Roboto-Regular, Roboto" font-size="16" font-weight="normal" letter-spacing="0.150000006" line-spacing="24">
                    <text id="Subtitle-1">
                        <tspan x="0" y="17">Instructions Title</tspan>
                    </text>
                </g>
                <g id="✱-/-Text-/-Overline-/-Selected-/-On-Surface-/-High-Emphasis-/-Left" transform="translate(16.000000, 11.000000)" fill="#80CBC4" font-family="Roboto-Medium, Roboto" font-size="12" font-weight="400" letter-spacing="2" line-spacing="16">
                    <text id="Overline">
                        <tspan x="0" y="13">WASTE</tspan>
                    </text>
                </g>
                <g id="List-/-State-/-Resting">
                    <mask id="mask-4" fill="white">
                        <use xlink:href="#path-3"></use>
                    </mask>
                    <g id="Surface"></g>
                </g>
            </g>
            <g id="Waste-Icon" transform="translate(866.000000, 346.000000)" fill-rule="nonzero">
                <path d="M32.6648077,16.2137742 C32.6911154,16.2165484 32.7169038,16.2177621 32.7418269,16.2177621 C33.0900577,16.2177621 33.3901731,15.9556008 33.4294615,15.6006774 L33.8597308,11.7114315 C35.0835577,11.4246492 36,10.328496 36,9.01612903 L36,8.32258065 C36,6.7926129 34.758,5.5483871 33.2307692,5.5483871 L26.3076923,5.5483871 L26.3076923,2.08064516 C26.3076923,0.933342742 25.3760192,0 24.2307692,0 L11.7692308,0 C10.6239808,0 9.69230769,0.933342742 9.69230769,2.08064516 L9.69230769,5.5483871 L2.76923077,5.5483871 C1.242,5.5483871 0,6.7926129 0,8.32258065 L0,9.01612903 C0,10.3286694 0.916442308,11.4248226 2.14044231,11.7116048 L5.22744231,39.6317823 C5.32817308,41.5208347 7.10965385,43 9.28401923,43 L34.6153846,43 C34.9980577,43 35.3076923,42.6898105 35.3076923,42.3064516 C35.3076923,41.9230927 34.9980577,41.6129032 34.6153846,41.6129032 L29.9480192,41.6129032 C30.4291731,41.0674274 30.7308462,40.3991935 30.7692692,39.6718347 L33.0152885,19.3482661 C33.0571731,18.9676815 32.7833654,18.6242016 32.4034615,18.5822419 C32.0133462,18.5428831 31.6806923,18.8159677 31.6388077,19.1951653 L29.3895,39.5586129 C29.3285769,40.7107702 28.15425,41.6129032 26.7163269,41.6129032 L25.6153846,41.6129032 L25.6153846,40.2258065 C25.6153846,39.078504 24.6837115,38.1451613 23.5384615,38.1451613 C22.3932115,38.1451613 21.4615385,39.078504 21.4615385,40.2258065 L21.4615385,41.6129032 L20.0769231,41.6129032 L20.0769231,40.2258065 C20.0769231,39.078504 19.14525,38.1451613 18,38.1451613 C16.85475,38.1451613 15.9230769,39.078504 15.9230769,40.2258065 L15.9230769,41.6129032 L14.5384615,41.6129032 L14.5384615,40.2258065 C14.5384615,39.078504 13.6067885,38.1451613 12.4615385,38.1451613 C11.3162885,38.1451613 10.3846154,39.078504 10.3846154,40.2258065 L10.3846154,41.6129032 L9.28401923,41.6129032 C7.84592308,41.6129032 6.67159615,40.7107702 6.60738462,39.5187339 L3.54271154,11.7903226 L32.4576346,11.7903226 L32.0529808,15.44775 C32.0110962,15.8283347 32.2849038,16.171121 32.6648077,16.2137742 Z M22.8461538,40.2258065 C22.8461538,39.8431411 23.1564808,39.5322581 23.5384615,39.5322581 C23.9204423,39.5322581 24.2307692,39.8431411 24.2307692,40.2258065 L24.2307692,41.6129032 L22.8461538,41.6129032 L22.8461538,40.2258065 Z M17.3076923,40.2258065 C17.3076923,39.8431411 17.6180192,39.5322581 18,39.5322581 C18.3819808,39.5322581 18.6923077,39.8431411 18.6923077,40.2258065 L18.6923077,41.6129032 L17.3076923,41.6129032 L17.3076923,40.2258065 Z M11.7692308,40.2258065 C11.7692308,39.8431411 12.0795577,39.5322581 12.4615385,39.5322581 C12.8435192,39.5322581 13.1538462,39.8431411 13.1538462,40.2258065 L13.1538462,41.6129032 L11.7692308,41.6129032 L11.7692308,40.2258065 Z M11.0769231,2.08064516 C11.0769231,1.69797984 11.38725,1.38709677 11.7692308,1.38709677 L24.2307692,1.38709677 C24.61275,1.38709677 24.9230769,1.69797984 24.9230769,2.08064516 L24.9230769,6.93548387 C24.9230769,7.31814919 24.61275,7.62903226 24.2307692,7.62903226 C23.8487885,7.62903226 23.5384615,7.31814919 23.5384615,6.93548387 L23.5384615,3.46774194 C23.5384615,3.08438306 23.2288269,2.77419355 22.8461538,2.77419355 L13.1538462,2.77419355 C12.7711731,2.77419355 12.4615385,3.08438306 12.4615385,3.46774194 L12.4615385,6.93548387 C12.4615385,7.31814919 12.1512115,7.62903226 11.7692308,7.62903226 C11.38725,7.62903226 11.0769231,7.31814919 11.0769231,6.93548387 L11.0769231,2.08064516 Z M22.1538462,5.5483871 L13.8461538,5.5483871 L13.8461538,4.16129032 L22.1538462,4.16129032 L22.1538462,5.5483871 Z M1.38461538,9.01612903 L1.38461538,8.32258065 C1.38461538,7.55794355 2.00596154,6.93548387 2.76923077,6.93548387 L9.69230769,6.93548387 C9.69230769,8.08278629 10.6239808,9.01612903 11.7692308,9.01612903 C12.9144808,9.01612903 13.8461538,8.08278629 13.8461538,6.93548387 L22.1538462,6.93548387 C22.1538462,8.08278629 23.0855192,9.01612903 24.2307692,9.01612903 C25.3760192,9.01612903 26.3076923,8.08278629 26.3076923,6.93548387 L33.2307692,6.93548387 C33.9940385,6.93548387 34.6153846,7.55794355 34.6153846,8.32258065 L34.6153846,9.01612903 C34.6153846,9.78076613 33.9940385,10.4032258 33.2307692,10.4032258 L2.76923077,10.4032258 C2.00596154,10.4032258 1.38461538,9.78076613 1.38461538,9.01612903 Z" id="Shape" fill="url(#linearGradient-5)"></path>
                <path d="M29.9954629,26.0911975 C30.0274053,25.8084918 29.8885921,25.5339831 29.6451169,25.3976007 L25.4997518,23.0846815 C25.1791392,22.9062683 24.7790108,23.0185832 24.592454,23.3387852 L22.1667069,27.4923431 C22.0239859,27.7368546 22.0399571,28.0455462 22.2078242,28.2724432 C22.3756912,28.5000378 22.6624925,28.5973541 22.9278855,28.524454 L23.7402058,28.2968594 L24.2449964,30.1167442 L19.6796238,30.1167442 C19.3039617,30.1167442 19,30.4287494 19,30.8143522 L19,34.302392 C19,34.4876069 19.0717003,34.665497 19.1991298,34.7962985 C19.3265592,34.9264024 19.4998633,35 19.6796238,35 L19.680983,35 L26.0064113,34.9900591 C26.0092997,34.9905823 26.0116784,34.9921519 26.0145668,34.9925007 C26.0476984,34.9979072 26.0803204,35 26.1127724,35 C26.1973855,35 26.2780909,34.9788974 26.3552282,34.948377 C26.5654018,34.8808834 26.7266425,34.7178176 26.7940952,34.5029543 L29.3355483,30.4043331 C29.4364724,30.2414417 29.4668856,30.043321 29.4205012,29.8565365 L28.6844687,26.9121076 L29.4995075,26.6838154 C29.7671094,26.608997 29.9636905,26.3739031 29.9954629,26.0911975 L29.9954629,26.0911975 Z M20.3592475,31.5119602 L24.6318722,31.5119602 L25.2100621,33.596064 L20.3592475,33.6033888 L20.3592475,31.5119602 Z M26.35183,32.6176688 L24.8631142,27.2513195 C24.7781612,26.9454184 24.5059719,26.7452049 24.2099958,26.7452049 C24.2020102,26.7452049 24.1947042,26.7452049 24.1873983,26.7452049 L25.4231242,24.6305808 L27.5336958,25.8077942 C27.2676231,25.9576055 27.1228632,26.2785052 27.2018695,26.5933008 L28.0308405,29.9104267 L26.35183,32.6176688 Z" id="Shape" fill="url(#radialGradient-6)"></path>
                <path d="M20.8525928,22.6879924 C20.9715186,22.8286915 21.1409186,22.9156501 21.3239744,22.930607 C21.3421244,22.9319983 21.3604473,22.932694 21.3785973,22.932694 C21.5426388,22.932694 21.7013217,22.8742578 21.8269889,22.7662552 L24.7567457,20.2526285 C24.8965871,20.1329735 24.9835343,19.9618388 24.9978815,19.7778343 C25.0122286,19.5938298 24.9532843,19.4117384 24.83384,19.2710394 L20.6517327,14.3537019 C20.6496584,14.3500496 20.648967,14.3458756 20.6467199,14.3423972 C20.578787,14.2340468 20.481987,14.1512621 20.3727412,14.0950868 C20.1870926,13.9851711 19.9654896,13.9702142 19.7658396,14.0519554 L14.9944621,14.725537 C14.8046649,14.7519725 14.6352648,14.8566707 14.5251548,15.0135441 L12.7905327,17.4918655 L12.0809539,17.0047231 C11.8479424,16.8443714 11.542158,16.8436757 11.3065536,17.0012448 C11.0723321,17.1595095 10.9568635,17.4449078 11.0147707,17.7233494 L12.0066253,22.4483344 C12.0754225,22.7744293 12.3611554,23 12.682497,23 C12.7203527,23 12.758727,22.9972173 12.7972742,22.9904345 L17.5313145,22.1928499 C17.8094417,22.1458922 18.0317361,21.9333653 18.0924089,21.6561411 C18.1532547,21.3782213 18.0396875,21.0923012 17.8068488,20.9319495 L17.0991714,20.4461985 L17.9117732,19.2176467 L20.8525928,22.6879924 Z M21.4562102,21.2557835 L18.7077806,18.0134434 L20.123654,15.8726955 L23.3325751,19.6456572 L21.4562102,21.2557835 Z M15.6331695,21.1016928 L13.2226757,21.5079636 L12.717587,19.1023396 C13.0072957,19.2131249 13.3435029,19.1172965 13.5284601,18.8529422 L15.4833023,16.0607001 L18.6325877,15.6163414 L15.5690395,20.2482806 C15.3899594,20.5194177 15.4245308,20.8712524 15.6331695,21.1016928 L15.6331695,21.1016928 Z" id="Shape" fill="url(#radialGradient-7)"></path>
                <path d="M6.66444541,30.4040919 L9.20585825,34.5027727 C9.27330984,34.7176391 9.43471793,34.8807073 9.64471834,34.9482019 C9.72185442,34.9787226 9.80255846,34.9998256 9.88717028,34.9998256 C9.9196218,34.9998256 9.95224323,34.9977327 9.98537436,34.9923262 C9.98826272,34.9919774 9.99064136,34.9904078 9.99352972,34.9898845 L16.3190278,35 L16.320387,35 C16.5003145,35 16.673446,34.9264013 16.8008734,34.7962955 C16.9283008,34.6654921 17,34.4875995 17,34.3023819 L17,30.8142914 C17,30.428683 16.6960431,30.1166733 16.320387,30.1166733 L11.7550866,30.1166733 L12.2598692,28.2969364 L13.0721766,28.5245343 C13.3375655,28.5974354 13.6250418,28.4999433 13.7922266,28.2725198 C13.960091,28.0456195 13.9760619,27.7370979 13.8333432,27.4924083 L11.4069549,23.3387901 C11.2204011,23.0185834 10.8195993,22.9062669 10.4996715,23.0846827 L6.35488169,25.3976356 C6.11124042,25.5338455 5.97259937,25.8083582 6.00454118,26.0912424 C6.03648299,26.3741265 6.23289115,26.6090494 6.50031887,26.683869 L7.31534477,26.9121645 L6.57932388,29.8566361 C6.53294029,30.0430745 6.56352288,30.2413725 6.66444541,30.4040919 L6.66444541,30.4040919 Z M15.640774,31.5119095 L15.640774,33.6033686 L10.7900362,33.5960436 L11.3682169,31.5119095 L15.640774,31.5119095 Z M8.46558978,25.8076606 L10.5768076,24.6304301 L11.8120042,26.745085 C11.498023,26.7436897 11.2239691,26.937802 11.1369786,27.2512069 L9.64828631,32.6176342 L7.96913248,29.9103527 L8.79809044,26.5931786 C8.87709545,26.2783784 8.73250779,25.9574741 8.46558978,25.8076606 L8.46558978,25.8076606 Z" id="Shape" fill="url(#radialGradient-6)"></path>
            </g>
        </g>
    </g>
</svg>