<?xml version="1.0" encoding="UTF-8"?>
<svg width="108px" height="159px" viewBox="0 0 108 159" version="1.1" xmlns="http://www.w3.org/2000/svg" xmlns:xlink="http://www.w3.org/1999/xlink">
    <!-- Generator: Sketch 63.1 (92452) - https://sketch.com -->
    <title>drop</title>
    <desc>Created with Sketch.</desc>
    <defs>
        <radialGradient cx="50%" cy="0%" fx="50%" fy="0%" r="147.222222%" gradientTransform="translate(0.500000,0.000000),scale(1.000000,0.679245),rotate(90.000000),translate(-0.500000,-0.000000)" id="radialGradient-1">
            <stop stop-color="#194941" offset="0%"></stop>
            <stop stop-color="#000000" offset="100%"></stop>
        </radialGradient>
    </defs>
    <g id="Home/Sign-In" stroke="none" stroke-width="1" fill="none" fill-rule="evenodd">
        <g id="Desktop-HD" transform="translate(-1055.000000, -633.000000)" fill="url(#radialGradient-1)" fill-rule="nonzero">
            <g id="drop" transform="translate(1055.000000, 633.000000)">
                <path d="M82.5676327,43.2788106 L53.9998267,0 L25.4320207,43.2788106 C21.3078879,49.524081 16.8491764,55.871111 12.1773898,62.1457023 C3.71781143,73.5030914 -0.584176595,87.8684208 0.0638510552,102.592496 C0.717161653,117.409706 6.35394598,131.336953 15.935246,141.807827 C26.0782875,152.894433 39.5988207,159 54.0015875,159 C68.4043544,159 81.9231267,152.894433 92.067929,141.807827 C101.649229,131.335228 107.284252,117.409706 107.935802,102.592496 C108.58559,87.8666962 104.285364,73.5013668 95.8240244,62.1439776 C91.150477,55.871111 86.6900041,49.524081 82.5676327,43.2788106 Z M62.1846977,139.444938 C60.4413622,139.444938 59.0290848,138.059975 59.0290848,136.354211 C59.0290848,134.646722 60.4413622,133.263483 62.1846977,133.263483 C75.3600857,133.263483 86.0789562,121.385224 86.0789562,106.790504 C86.0789562,105.083015 87.4929949,103.699776 89.2345691,103.699776 C90.9779046,103.699776 92.390182,105.083015 92.390182,106.790504 C92.390182,124.796752 78.8379516,139.444938 62.1846977,139.444938 Z" id="Shape"></path>
            </g>
        </g>
    </g>
</svg>